<?xml version="1.0" standalone="no"?>
<!DOCTYPE svg PUBLIC "-//W3C//DTD SVG 1.1//EN" "http://www.w3.org/Graphics/SVG/1.1/DTD/svg11.dtd" >
<svg xmlns="http://www.w3.org/2000/svg">
<metadata></metadata>
<defs>
<font id="recorda_script_personal_useRg" horiz-adv-x="1619" >
<font-face units-per-em="2048" ascent="1536" descent="-512" />
<missing-glyph horiz-adv-x="538" />
<glyph horiz-adv-x="2048" />
<glyph horiz-adv-x="2048" />
<glyph unicode="&#xd;" horiz-adv-x="1024" />
<glyph unicode=" "  horiz-adv-x="538" />
<glyph unicode="&#x09;" horiz-adv-x="538" />
<glyph unicode="&#xa0;" horiz-adv-x="538" />
<glyph unicode="A" horiz-adv-x="1708" d="M32 450q3 6 15 5q16 -10 42 -17.5t58 -11.5q0 18 3 29q10 143 39.5 285.5t91.5 271.5q59 127 156.5 228t232.5 144q93 30 190 30q46 0 94 -6q146 -22 263 -110q86 -66 148 -150.5t103 -184t63.5 -207t31.5 -213.5q29 4 55.5 8t54.5 8q68 10 135.5 18.5t135.5 16.5 q33 4 65.5 7t65.5 7q4 2 17 3t15 -9q0 -12 -10 -12q-135 -10 -267 -25.5t-265 -36.5q4 -68 5 -133v-26q0 -52 -3 -103q-6 -145 -37 -286q-6 -25 -9 -27t-5.5 6t-2.5 22.5v24.5q4 41 8.5 83t6.5 83q6 88 7 175v35q0 70 -3 140q-135 -20 -268.5 -42.5t-266.5 -43.5 q-135 -23 -270 -40t-272 -27q-63 -5 -129 -7h-24q-53 0 -105 9q0 -82 6 -162l14 -162q0 -18 1 -36.5t-1 -39.5l-1 -10t-3 -20.5t-6 -15.5q-1 -2 -3 -2l-5 7q-8 14 -16.5 41t-14.5 58.5t-10 64.5t-6 62q-7 100 -7 199v24q-51 10 -86 37q-6 4 -14 10t-12 12q-2 3 -2 7q0 3 1 5 zM199 422q16 -2 34.5 -2h34.5q33 -1 65.5 -1t64.5 1q64 2 126 6q147 10 294 24.5t294 32.5q209 25 418 56q-4 53 -10.5 103t-16.5 103q-16 82 -43.5 165t-68.5 158t-97.5 139.5t-130.5 111.5q-78 47 -166 67q-67 15 -135 14l-41 -1q-88 -6 -172 -39t-151 -92 q-72 -61 -122 -141t-83 -167.5t-52.5 -180.5t-29.5 -183q-10 -86 -12 -174z" />
<glyph unicode="B" horiz-adv-x="1507" d="M36 1080q6 38 30 72t63 63.5t81 53t82 41t66 27.5q141 53 291 75t299 22q141 -2 283.5 -26t269.5 -89q55 -29 103 -72t74 -94q25 -49 25 -105q0 -61 -42 -124q-37 -55 -89 -97.5t-113.5 -75t-126 -56t-126.5 -40.5q-78 -23 -157.5 -36t-161.5 -23q78 -6 155.5 -19.5 t153.5 -35.5q45 -16 92 -37q176 18 354 31q8 0 27 3l38 6t35.5 3t22.5 -6q4 -3 4 -6t-3 -5q-7 -4 -18 -6t-22 -1l-12 1q-72 -4 -141.5 -10t-138.5 -12l-121 -13q25 -16 46 -34.5t36 -44.5q16 -31 17 -62t-9 -59.5t-29.5 -56t-40.5 -48.5q-96 -98 -226 -151t-261 -76 q-66 -11 -138 -19q-45 -5 -92 -5q-28 -1 -56 1q-75 4 -145.5 20.5t-127.5 53.5q-70 44 -70 90v8q6 50 53 94t111.5 78.5t105.5 51.5q59 23 121 42t125 36l-18 174q-25 -2 -49.5 -2h-49.5q-35 -2 -71.5 -2h-71.5q-12 2 -39.5 -1.5t-38.5 7.5q-8 8 6 12v2h11q10 2 20 2h21 q66 4 129 7t129 9q-4 18 -5 36t-4 36q-6 49 -11 99.5t-9 101.5q-29 -4 -59.5 -8.5t-59.5 -6.5q-55 -4 -129 -5h-12q-68 1 -134 11q-72 12 -135 40t-98 84q-20 32 -20 63q0 6 1 13zM57 1065v-7q-1 -40 21 -66q24 -30 64 -49t89.5 -29.5t98.5 -14.5t92 -5h27q25 0 43 1 q96 4 188 25q-1 23 -1 47v23q1 36 5 71t13.5 77t39.5 66q8 6 22.5 10.5t8.5 -16.5q-6 -6 -10 -20.5t-7 -33t-5.5 -37t-4.5 -30.5q-4 -37 -6 -73.5t-2 -71.5q82 20 161 48t161 60q6 2 15 7.5t18.5 7.5t15.5 0t4 -15q-14 -12 -42 -26.5t-61.5 -29.5t-69.5 -29.5t-67 -22.5 q-35 -10 -67.5 -18.5t-67.5 -16.5v-4q0 -137 6 -272q63 6 125 14t125 18q135 23 273.5 60t255.5 108q51 31 95 73t64 99q12 33 12 64q1 35 -15 69q-28 62 -83 107q-53 43 -117.5 70.5t-133 44t-138 23.5t-137.5 9q-35 1 -69 1q-112 0 -224 -10q-146 -13 -289 -42 q-47 -10 -118.5 -28.5t-139 -49t-117 -77t-51.5 -109.5zM238 133q-4 -11 -3 -23q0 -15 7 -30q12 -29 37.5 -46.5t56.5 -28.5t63.5 -17t59.5 -8q69 -8 138 -8q65 0 132 7q137 15 266 54q51 14 116 38.5t124 60.5t103 83t55 109q2 13 2 26q0 39 -23 69q-31 40 -82 68 q-104 -12 -207.5 -27.5t-205.5 -35.5q-31 -6 -62 -13.5t-61 -15.5q4 -59 8 -116.5t8 -116.5q0 -8 3 -32t-11 -26q-12 0 -11 15.5t1 19.5q0 47 -3.5 92t-7.5 91l-6 69q-98 -23 -194.5 -55.5t-182.5 -85.5q-20 -12 -45.5 -29.5t-45 -39t-29.5 -48.5zM739 584l6 -76l7 -96 q127 33 255 53t257 35q-35 16 -74 27.5t-76 19.5t-69.5 13t-57.5 9q-51 6 -100 10.5t-101 6.5q-12 0 -23.5 -1t-23.5 -1z" />
<glyph unicode="C" horiz-adv-x="1351" d="M34 435q-2 24 -2 47q0 108 34 214q41 131 114.5 244t172 202t217 152.5t249.5 98.5q135 35 277 37h12q135 0 264 -41q49 -16 105.5 -46t101.5 -71q45 -40 67 -94q12 -28 12 -59q0 -27 -9 -56q-2 -4 -3 -10t-6 -11q10 0 18.5 -1t18.5 -1q70 -8 139.5 -15t139.5 -17 q35 -4 70.5 -9.5t70.5 -11.5q6 0 13.5 -4t11.5 -7t4 -6t-6 -1q-4 0 -51.5 7t-118 16t-154.5 20.5t-160 19.5q-27 -53 -77 -93t-110 -68.5t-123.5 -47t-115.5 -30.5q-52 -13 -116 -21q-48 -6 -95 -6q-17 0 -35 1q-66 3 -123 25.5t-91 71.5q-19 28 -19 51q0 9 3 18 q11 30 46 50.5t86.5 34.5t100.5 23.5t91 12.5t60 5q68 3 136 4q57 0 113 -3q124 -5 251 -16q20 34 20 72v18q-6 48 -53 101q-43 47 -103.5 75.5t-126 43t-134 18.5t-127.5 4q-137 0 -271.5 -28.5t-255.5 -87t-223 -146.5t-174 -209q-33 -55 -59.5 -116.5t-44 -127 t-21.5 -131.5q-1 -17 -1 -34q0 -50 9 -99q25 -129 110 -226t208 -146q120 -49 250 -49h20q141 4 270 61q51 23 107.5 58.5t102.5 81.5q46 47 75 103q25 50 25 104v15q-2 10 7 3t7 -23q-2 -59 -33 -119q-29 -59 -77 -108.5t-101 -88.5q-106 -75 -233 -107q-83 -21 -168 -21 q-44 0 -88 6q-123 16 -232.5 78.5t-181.5 166.5q-78 117 -87 249zM752 892q12 -22 39.5 -36t59.5 -22.5t50 -10.5q52 -6 104 -6q77 1 157 13q134 20 251 65q55 20 110.5 56t86.5 83q-23 4 -42.5 5t-35.5 3q-140 10 -284 12q-12 0 -25 1q-131 0 -258 -25q-25 -4 -53.5 -10 t-56.5 -15.5t-52.5 -24.5t-40.5 -36q-15 -19 -15 -35q1 -9 5 -17z" />
<glyph unicode="D" horiz-adv-x="1728" d="M28 1088q8 38 34 73t67 64.5t84 54.5t85 42t69 28q139 46 285 64q114 14 229 14q33 0 65 -1q86 -4 178.5 -18t180.5 -43t168.5 -73t142 -104.5t101.5 -140t48 -180.5q2 -23 2 -45q0 -35 -4 -67q-6 -54 -20 -107q152 16 303 25q74 6 147.5 9t147.5 7q4 0 7 -5q1 -2 1 -4 q0 -3 -2 -5q-4 -4 -18.5 -4t-12.5 0l-172 -6q-102 -4 -202.5 -11.5t-202.5 -17.5q-33 -104 -96.5 -196.5t-146.5 -169t-178 -137t-194 -99.5q-131 -53 -272 -79q-122 -23 -245 -23q-19 0 -38 1q-59 4 -120.5 16.5t-108.5 53.5q-29 25 -37 53.5t-2 58t22.5 57.5t38.5 52 q72 74 166.5 124t194.5 87q-6 63 -12.5 126t-14.5 126q-6 49 -11 99.5t-9 101.5q-29 -4 -55.5 -7t-55.5 -8q-55 -4 -131 -5h-12q-70 1 -140 11q-76 12 -140 41t-97 87q-19 32 -19 62q0 9 2 18zM57 1102q-9 -24 -9 -45q0 -24 12 -44q24 -36 68 -59.5t95 -36t86 -16.5 q61 -8 122 -8q31 0 61 2q92 6 182 23q-1 23 -1 47v25q1 36 5 71t13 77t38 66q8 6 22.5 10.5t8.5 -16.5q-6 -6 -10.5 -20.5t-7.5 -33t-5 -36.5t-4 -31q-4 -37 -5 -74.5t-3 -74.5l20 6q55 14 110.5 30.5t109.5 39.5q8 4 30.5 15t47 20.5t42 12.5t15.5 -12q-8 -6 -33 -19 t-57.5 -29.5t-70.5 -33t-73 -26.5t-70.5 -18.5t-70.5 -16.5v-4q0 -195 12 -385l4 -66q33 10 64 20.5t61 20.5q139 43 281.5 74t288.5 53q147 23 290 37q10 37 17.5 75t9.5 77q1 15 1 30q0 126 -62 234q-68 121 -191 192q-125 74 -269.5 97.5t-285.5 23.5q-143 0 -286.5 -14 t-282.5 -53q-43 -12 -91 -28.5t-93.5 -41.5t-82 -58.5t-53.5 -78.5zM322 82q6 -31 30.5 -51.5t56 -31.5t65.5 -15t61 -7q48 -4 97 -4q86 -1 173 11q137 18 267 61t247 112.5t211 168.5q63 66 113.5 143.5t78.5 165.5q-195 -20 -386 -53t-378 -86q-53 -16 -107 -31.5 t-108 -36.5q4 -66 9.5 -132t9.5 -134q2 -8 4 -32t-12 -26q-12 0 -11.5 15.5t0.5 19.5q0 47 -3 92t-7 91l-8 100q-78 -31 -152.5 -70t-140.5 -90q-18 -14 -40.5 -33.5t-39 -43t-26.5 -49.5q-6 -16 -7 -32q0 -11 3 -22z" />
<glyph unicode="E" horiz-adv-x="1589" d="M33 866q16 63 58 114.5t97.5 92.5t118 73t117.5 56q262 115 550 168q250 46 497 47q37 0 75 -2q66 -2 131.5 -7t130.5 -17q27 -6 62 -13.5t66.5 -21t58 -33.5t39.5 -49q9 -20 9 -39q-1 -16 -7 -31q-14 -33 -45 -61.5t-75 -53t-88 -43t-84 -34t-63 -23.5 q-117 -45 -233.5 -86t-233.5 -82q-55 -18 -110 -37.5t-109 -42.5q-4 -2 -24.5 -8t-43 -11t-38 -6t-8.5 9q10 20 34.5 36.5t54 30t61.5 24t59 18.5q76 25 150.5 46t150.5 42q131 37 264 77.5t252 108.5q16 10 37.5 23.5t40 31t29.5 37t9 41.5q-2 29 -21.5 49.5t-47 32.5 t-57 19.5t-52.5 11.5q-117 23 -236 23q-31 1 -61 -1q-150 -8 -297 -24q-154 -16 -303 -42t-297 -67q-129 -35 -258 -86t-233 -137q-43 -37 -78 -85t-41 -108l-2 -22q0 -51 32 -91q38 -48 89 -81q113 -72 247 -106.5t265 -53.5q47 -6 94 -10t96 -6q31 4 61.5 7t61.5 7 q8 0 25.5 2t36 4t35 1t22.5 -5q20 -18 0 -24v-3q-137 -16 -274.5 -37.5t-266.5 -76.5q-57 -25 -114.5 -58.5t-92.5 -87.5q-27 -38 -27 -72q1 -20 9 -38q24 -51 86 -76q63 -25 136 -32q46 -4 94 -4q28 0 54 1q74 4 147 16.5t136 28.5t134 40t138.5 57.5t126 78.5t95.5 103 q10 2 11 -2t-2 -10.5t-8 -14.5t-7 -12q-37 -47 -76 -78q-53 -47 -115.5 -82t-128.5 -63q-135 -57 -285 -81q-88 -14 -174 -14q-61 0 -122 7q-59 6 -122 23.5t-108 62.5q-25 25 -31 52t0.5 56t22.5 55.5t37 49.5q82 86 194.5 133t227.5 71q-113 10 -224.5 31t-218.5 55 q-55 18 -119.5 46t-115.5 69t-79 97q-17 33 -17 71q0 26 8 55z" />
<glyph unicode="F" horiz-adv-x="1560" d="M38 779q-8 35 -8 69q0 89 52 176q68 115 184.5 189.5t239.5 117.5q131 47 274.5 70.5t290 23.5t288.5 -25.5t273 -76.5q45 -18 107.5 -48t118.5 -72t90 -95q28 -43 28 -92q0 -11 -2 -23q-8 -59 -55 -97t-109.5 -60.5t-129 -31.5t-111.5 -13q-72 -7 -144.5 -7t-144.5 7 q-144 14 -287 51q-25 6 -48 12t-46 14q-1 -47 -1 -94q0 -117 7 -233q0 -68 6 -131q105 2 209 12q68 4 135.5 11t135.5 16q8 2 27.5 6t25.5 -2q4 -4 3 -8.5t-5 -6.5q-41 -10 -84 -19t-84 -16q-84 -16 -174 -26t-187 -12l15 -189q4 -47 6 -96l4 -98q2 -14 0 -23q-2 -8 -6 -13 q-2 -2 -4 -2q-3 0 -8 5q-6 8 -4 23.5t2 23.5q-2 92 -8.5 184t-14.5 185h-39q-78 0 -158 6q-98 8 -191 31.5t-178 63.5t-157 101q-106 88 -134 212zM46 833q0 -63 32 -124q31 -59 81 -104.5t109.5 -77t126 -52t127.5 -33.5q92 -18 183.5 -25t185.5 -7q-8 72 -15.5 144.5 t-13.5 143.5q-4 47 -8 94.5t-6 94.5q-25 10 -49.5 21.5t-48.5 23.5q-29 14 -57.5 28.5t-55.5 32.5q-31 20 -51 41q2 -2 -4.5 4t-10.5 14.5t-4 12.5t13 -2q43 -23 113.5 -58.5t154.5 -70.5q0 27 1 52.5t3 51.5q4 41 12 86t37 76q8 8 23.5 14.5t9.5 -16.5q-16 -16 -23.5 -52 t-8.5 -77t-1 -81.5v-65.5v-9q53 -23 106.5 -40t104.5 -27q147 -33 301 -41q31 -2 61 -2q122 0 240 26q59 14 119.5 38t99.5 75q21 28 23 56v10q0 24 -8 46q-10 28 -30 53.5t-42 45.5q-102 92 -238.5 134t-269.5 59q-134 18 -286 23q-32 1 -65 1q-119 0 -237 -14 q-150 -18 -290 -65.5t-254 -131.5q-53 -39 -96.5 -90t-67.5 -109q-26 -60 -26 -127z" />
<glyph unicode="G" horiz-adv-x="1040" d="M50 370q-8 47 -8 94q0 73 18 148q28 123 91.5 237t143.5 202q-23 27 -41 53q-23 31 -40 63.5t-32 67.5q-4 12 0 25.5t8 -0.5q25 -111 111 -201l37 39q98 94 219 166.5t254 113.5t273 48q24 2 49 2q114 0 225 -29q63 -16 134 -53t120 -91.5t62 -120.5q2 -13 2 -26 q0 -55 -44 -115q-43 -61 -107.5 -104t-137 -70.5t-150.5 -42t-150 -16.5q-23 -1 -45 -1q-138 0 -274 31q-160 37 -295 117q-96 57 -168 133q-53 -59 -101 -131.5t-83 -153.5t-53 -165q-12 -59 -12 -116q0 -24 2 -48q8 -80 43.5 -152.5t109.5 -130.5q51 -39 111 -56 q50 -14 102 -14h18q62 3 121.5 25.5t106.5 63.5t82.5 91t60.5 105q12 29 23.5 58.5t17.5 58.5q0 -2 2 4t5 13.5t6 9.5t1 -6q-2 -16 -6 -31.5t-8 -32.5q-2 -8 -4 -14l-4 -12q4 41 10 83.5t29 79.5q2 2 10 10.5t17.5 13.5t14.5 4t-1 -13q-6 -14 -10.5 -56t-8.5 -69 q-6 -45 -8 -90t-6 -93q-4 -94 -7 -187t-3 -187q2 -84 3 -166t1 -166q2 -16 1 -33.5t-1 -34.5q0 -10 -10.5 -10t-10.5 10q0 37 2 75q1 19 1 38t-1 37q0 100 -4 199.5t-10 199.5l-8 172q-2 43 -2 86t2 86v11q-18 -59 -46 -114.5t-66 -103t-86 -84t-107 -55.5q-59 -20 -119 -20 q-44 0 -90 11q-107 26 -178 110q-86 100 -104 220zM311 1047q70 -68 167 -118t205 -83t221 -46q76 -9 148 -9q32 0 64 2q63 2 132 13t134.5 33.5t123 58.5t100.5 87q50 60 50 114v7q-3 57 -39 104t-94.5 80t-115.5 49q-129 35 -271 36h-10q-137 0 -271 -29 q-138 -31 -264 -93.5t-226 -152.5q-14 -12 -26.5 -25.5t-27.5 -27.5z" />
<glyph unicode="H" horiz-adv-x="1593" d="M31 62.5q0 31.5 8 62.5t22 57q29 59 76 105.5t103.5 82.5t117 62.5t119.5 46.5l15 4q4 12 5 25.5t3 26.5q18 137 21 274q1 46 1 91q0 91 -4 183q-6 131 -24 260q-4 33 -8.5 65t-6.5 65l-1 10t-1 20q0 9 2 17q1 4 3 5q2 0 5 -3q18 -18 30.5 -47t21 -62t11.5 -65.5t7 -63.5 q6 -72 9 -144q2 -44 2 -87q0 -29 -1 -58q-4 -260 -51 -503q133 43 270.5 68.5t274.5 41.5q72 8 143.5 13.5t143.5 9.5l-9 247q-1 38 -1 75q0 57 2 113q3 94 20 185q6 37 19.5 73t39.5 64q2 2 10.5 8.5t16.5 9.5t12 1t2 -15q-16 -23 -27.5 -64.5t-19.5 -84.5q-8 -41 -12 -84 t-8 -84q-10 -104 -14.5 -208.5t-6.5 -209.5q0 -6 -1 -12t-1 -12q143 6 291 6l96 2q25 0 49 -1q72 -1 144 -3l145 -4q29 -2 29 -9q0 -9 -29 -6q-183 8 -363 12q-44 1 -87 0q-137 0 -275 -8q0 -90 1 -179t3 -179v-57.5v-71.5t-1 -71.5t-1 -57.5q-2 -47 -11 -47t-5 47 q5 87 5 180q0 58 -2 120q-5 159 -11 316q-102 -6 -203 -15t-203 -23q-109 -16 -216.5 -38t-211.5 -57l-12 -61q-12 -59 -30.5 -125t-46.5 -127t-68 -115.5t-95 -89.5q-18 -12 -42.5 -22.5t-51.5 -14.5q-14 -2 -26 -2q-14 0 -26 2q-24 4 -42 23q-23 23 -33 51.5t-10 60z M43 86q-1 -8 -1 -16q0 -16 3 -32q4 -26 15.5 -48.5t29.5 -37.5q16 -13 41 -13h6q59 4 107.5 32.5t85.5 73.5q74 88 108.5 202.5t53.5 227.5q-23 -8 -46.5 -16.5t-46.5 -18.5q-55 -25 -115.5 -57.5t-111.5 -75.5t-87 -98t-42 -123z" />
<glyph unicode="I" d="M31 1057q6 63 48 113.5t100.5 87t123 61t115.5 41.5q136 41 278 53q66 6 130 6q76 0 151 -8q135 -14 266 -65.5t221 -155.5q94 -104 118 -240q10 -55 10 -109q0 -80 -21 -159q-2 -2 -2 -8l135 10q154 10 308.5 10t309.5 -4q2 0 10.5 -3t14.5 -6q7 -4 7 -7q0 -2 -9 -2 l-147 6q-80 1 -160 1l-160 -1q-78 -2 -157 -5t-156 -9q-37 -133 -115 -250t-182.5 -208t-229.5 -154.5t-256 -92.5q-52 -9 -122 -19q-48 -6 -95 -7l-45 1q-70 4 -131 31t-88 86q-16 33 -16 65q0 28 12 54q25 58 72 109t106.5 90t102.5 61q111 57 230.5 99t243.5 71t251 46.5 t251 27.5q23 86 23 173q0 31 -3 61q-11 118 -83 218q-39 55 -91 94.5t-111.5 66t-124 41.5t-128.5 24q-104 13 -211 13q-41 0 -83 -2q-150 -7 -291 -36q-53 -10 -120 -30.5t-127.5 -52.5t-104.5 -79t-52 -110q-1 -11 -1 -21q0 -37 16 -65q22 -35 61 -55.5t89 -32t102 -13.5 q26 -1 50 -1t47 1q46 2 76 6q74 8 144.5 24.5t142.5 39.5q37 10 74 23.5t74 23.5q6 2 19 7t25.5 8.5t20.5 0t6 -15.5q-8 -10 -36.5 -22.5t-66.5 -25.5t-78 -24.5t-71 -19.5q-72 -18 -143.5 -31.5t-144.5 -17.5q-22 -1 -50 -1h-29q-46 1 -95.5 7t-96.5 20.5t-83 39t-55 60.5 q-14 27 -14 63q0 12 1 24zM311 147q-6 -24 -6 -44q0 -43 25 -67q37 -36 98 -50q51 -12 106 -13q11 0 23 1q68 3 111 8q139 14 273 63t248 127t203 185.5t140 242.5q6 16 11 30.5t9 31.5q-213 -16 -421.5 -58.5t-405.5 -122.5q-55 -23 -120.5 -53.5t-125 -71.5t-105.5 -93 t-63 -116z" />
<glyph unicode="J" d="M29 1077q14 61 59 108.5t103.5 82.5t123 58.5t119.5 39.5q119 33 245 45q69 7 137 7q57 0 114 -5q63 -4 128.5 -18.5t125 -41t113 -65.5t94.5 -92q43 -55 66.5 -119.5t32.5 -133.5q5 -41 5 -83q0 -28 -2 -56q-6 -69 -20 -136q-6 -29 -14.5 -57.5t-18.5 -57.5 q88 20 175 35.5t175 32.5q12 2 58 9t108.5 15t131.5 17.5t127 15.5t96 8t38 -4q0 -2 -36 -7t-91 -13.5t-120.5 -15.5t-125 -15t-103.5 -13.5t-56 -7.5q-98 -16 -192.5 -32.5t-188.5 -38.5q-41 -115 -101.5 -220.5t-139.5 -200.5t-171 -176t-193 -143q-115 -70 -245 -109 q-102 -30 -209 -30q-27 0 -55 2q-29 2 -57.5 8t-55.5 18.5t-48.5 32t-33.5 48.5q-10 25 -10 51q0 6 1 12q3 33 17.5 64.5t33.5 59.5t40 50q90 100 206.5 171t235.5 126q135 61 274.5 108.5t280.5 84.5q111 31 221 55q39 113 50 235q2 28 2 56q0 40 -5 80q-8 69 -31.5 130.5 t-64.5 115t-100 92.5q-98 63 -216 82.5t-233 19.5q-131 0 -265 -13.5t-259 -58.5q-41 -14 -98 -45t-102.5 -74t-62.5 -95q-5 -16 -5 -32q0 -37 26 -75q35 -51 92.5 -74t124.5 -29q33 -3 66 -3l66 3q67 6 118 15q70 10 137.5 27.5t133.5 39.5q35 10 66.5 21.5t66.5 21.5 q6 2 16.5 5t19.5 5.5t14 -1t3 -15.5q-4 -2 -31.5 -13t-65.5 -25.5t-78 -29t-69 -22.5q-74 -20 -149.5 -33.5t-153.5 -17.5q-18 -1 -38 -1t-44 1q-47 2 -97 9t-98 23.5t-82 43t-51 65.5q-8 20 -8 45q0 22 7 47zM139 -169v-7q0 -24 11 -47q14 -29 40.5 -45.5t58.5 -24.5t65 -9 h22q22 0 41 1q137 6 267 50t247 118q88 55 169 128t149.5 159t124 183t89.5 200q-47 -10 -95 -23t-95 -25q-143 -37 -280.5 -84t-272.5 -106q-129 -59 -254 -133t-215 -184q-16 -20 -32.5 -45t-27 -51.5t-12.5 -54.5z" />
<glyph unicode="K" horiz-adv-x="1564" d="M39 -39q6 31 26.5 55.5t49 42t60.5 28.5t58 19q33 10 67 14.5t69 8.5q1 56 1 111q0 118 -6 235q-8 172 -10 346q-3 65 -3 130q0 33 1 65q2 96 19 192q6 43 19 88t42 78q2 4 11.5 10.5t16.5 10.5t12 2t3 -15q-16 -27 -27.5 -69.5t-19.5 -89.5q-10 -51 -15 -100.5 t-10 -100.5q-16 -207 -18 -410q-2 -100 -2 -200.5t2 -200.5v-80q31 1 62 1q54 0 109 -4q85 -7 169 -17q57 47 108.5 101t98.5 114q104 129 187 271t147 296q35 80 62.5 162t47.5 168q10 41 16.5 84t12.5 84q0 2 3 18t8 33q6 16 12 26q3 5 5 5q3 0 5 -7q6 -16 9 -44.5 t2 -61.5t-5 -68.5t-12 -66.5q-16 -74 -41 -145.5t-54 -141.5q-55 -129 -124.5 -251t-153.5 -238q-63 -86 -139 -175.5t-164 -167.5q4 -2 12 -2q223 -31 439 -74.5t438 -82.5q74 -12 147.5 -25.5t149 -22t150.5 -11.5q19 -1 37 -1q56 0 112 7q31 4 60.5 10t57.5 16 q-2 0 9.5 4t23.5 8q12 6 20 4q3 -1 2 -3q0 -3 -8 -9q-47 -45 -110.5 -61.5t-124.5 -20.5q-45 -3 -89 -3q-100 -1 -200 15q-144 22 -287 52q-147 29 -290.5 62.5t-290.5 64.5q-72 14 -142.5 27.5t-142.5 23.5q-117 -98 -250 -162.5t-280 -66.5q-23 0 -53.5 4t-56.5 16 q-26 13 -41 33q-11 15 -11 35q0 9 2 18zM57 -74q12 -29 39 -41q26 -12 58 -15q16 -2 32 -1.5t33 1.5q33 3 55 7q70 10 134.5 36t123.5 60q45 25 86 53.5t82 61.5q-61 10 -123.5 15.5t-123.5 7.5h-68q0 -27 -1 -52.5t-1 -52.5q0 -4 1 -13t0 -18.5t-4 -16.5t-9 -7 q-14 2 -10 25.5t4 29.5q2 27 3 51.5t1 51.5q-86 -4 -166 -31q-20 -6 -50 -20.5t-55.5 -34t-39.5 -43.5q-7 -13 -7 -28q0 -12 6 -26z" />
<glyph unicode="L" d="M39 -33q8 29 28.5 51.5t47 38t56.5 26.5t54 19q95 29 195 30q9 0 18 1q91 0 183 -10l12 47q10 54 10 109q0 13 -1 27q-3 68 -12 137t-19.5 137.5t-12.5 136.5q-1 23 -1 46q0 120 35 227q42 128 152 229q98 92 226 142q129 51 266 63q44 4 89 4q93 0 185 -18 q136 -26 252 -87q51 -29 98.5 -73t73.5 -96q24 -47 24 -98v-12q-3 -58 -50 -112q-43 -51 -101.5 -84t-125 -53.5t-135 -29.5t-130.5 -11q-35 -3 -80 -3q-22 0 -47 1q-74 2 -146.5 18t-132 50t-81.5 95q-4 14 3 13.5t17 -8t19 -14.5l8 -7q23 -20 50.5 -33.5t55.5 -23.5 q72 -25 145.5 -35t149.5 -12q20 -1 42 -1q43 0 90 3q71 4 139.5 19t131 45t107.5 79q53 57 53 114.5t-33.5 108.5t-88 90t-107.5 60q-119 45 -265 61q-61 6 -123 6q-85 0 -168 -12q-144 -22 -271 -84.5t-209 -173.5q-43 -59 -65 -124q-22 -64 -32 -133q-7 -52 -7 -105v-34 q3 -70 12 -139q6 -53 15 -111t15 -116q4 -44 5 -88q0 -14 -1 -28q-2 -58 -16 -111l141 -19q150 -23 297.5 -50t294.5 -56t294 -54.5t296 -39.5q70 -8 138 -10q13 0 26 -1q56 0 113 9q29 4 55 8t53 14q6 2 17.5 7t20.5 8.5t16 1.5t7 -15q-37 -37 -97 -59.5t-136 -26.5 q-28 -1 -57 -1q-50 0 -101 4q-80 7 -157 20q-150 23 -296.5 53.5t-293.5 62.5q-147 33 -292.5 64t-295.5 51l-51 6q-16 -47 -45 -84q-33 -45 -80 -79.5t-102 -58.5q-56 -24 -114 -34q-37 -7 -73 -6q-20 0 -39 2q-25 2 -52.5 11.5t-50 25.5t-34.5 39q-7 14 -7 30q0 11 3 23z M56 -54q0 -21 26 -38q24 -16 52 -22q21 -4 42 -3h16q30 2 59.5 7.5t53.5 9.5q100 23 184 66.5t123 135.5q-96 12 -196 12q-21 0 -43 -1q-122 -3 -226 -58q-16 -10 -37.5 -26.5t-37.5 -38.5t-16 -44z" />
<glyph unicode="M" horiz-adv-x="1648" d="M31 1060.5q0 65.5 12 128t47 111.5q20 31 46 43.5t50.5 7.5t46 -24.5t35.5 -50.5q29 -68 31 -151q1 -28 1 -54q0 -53 -3 -100q-4 -121 -17.5 -240t-31.5 -239q39 -70 79 -129.5t89 -120.5q37 -45 82 -94.5t99 -90.5q53 -41 113 -67q51 -22 107 -21h17q92 4 167.5 57.5 t134 131.5t102.5 167t73 162q39 94 66.5 191.5t47.5 195.5q6 35 11.5 69t9.5 69q-1 18 -1 36q0 27 2 53q3 44 7 89q6 43 16.5 87t36.5 81q2 4 14.5 14t23.5 17.5t19 8.5h1q6 0 6 -10v-6q-12 -6 -20.5 -24.5t-15.5 -41t-12 -47t-7 -42.5q-10 -49 -13.5 -99.5t-5.5 -101.5 q-4 -104 -4 -205.5t4 -206.5q4 -102 10 -201.5t13 -201.5q4 -53 6 -103.5t4 -101.5q0 -4 1 -13t1 -18.5t-3 -16.5t-9 -7t-8.5 7t-2.5 17.5t1 18.5t1 12q1 24 1 49q0 75 -5 149q-6 100 -14 200t-18.5 199t-18.5 198l-8 117q-12 -66 -29 -133.5t-35 -133.5q-41 -129 -99 -264 t-144 -246q-41 -51 -92.5 -93t-109.5 -66q-59 -25 -123 -27h-8q-60 0 -122 25q-123 51 -223.5 146t-175.5 202q-16 23 -29.5 43t-28.5 43l-61 -357q0 -6 -2 -20t-3 -28.5t-4 -28t-7 -17.5q0 -10 -7.5 -5t-7.5 15q4 35 11.5 68t13.5 68l57 319q-53 90 -92 185.5t-61 197.5 q-12 55 -23.5 119.5t-11.5 130zM55 1132q-1 -20 -1 -41q0 -49 6 -97q10 -68 30.5 -135.5t42.5 -125.5q23 -57 47.5 -112.5t52.5 -108.5q23 129 36.5 259t17.5 261q0 61 -4 127t-33 123q-18 33 -41 45q-16 8 -33 8q-8 0 -14 -1q-24 -5 -44 -24.5t-32 -47.5q-27 -61 -31 -130z " />
<glyph unicode="N" horiz-adv-x="1599" d="M82 1186q2 41 9 81t24 74q8 14 16 25.5t21 22.5q4 4 11 5t13 3q2 2 2 4l6 -4q8 -4 -2 -11q-5 -16 -4 -39q0 -26 6 -62q12 -66 36 -144t55.5 -156t60.5 -135q63 -125 137 -239.5t164 -223.5q86 -106 187.5 -209.5t222.5 -169.5q53 -29 113 -42q17 -4 33 -4q42 0 83 24 q55 33 86 89t47 115q30 110 30 226q0 20 -1 40q-6 138 -31 269q-23 135 -68 272.5t-122 251.5q-18 27 -40 51.5t-44 47.5q-20 20 -52 41q-8 4 -3 9t9 1q59 -43 109.5 -95.5t91.5 -111.5q78 -117 122 -250t60 -274q8 -76 12 -161q1 -20 0 -40q0 -65 -8 -130 q-12 -85 -39.5 -163t-78.5 -139q-42 -51 -92 -69q-37 -13 -75 -13q-13 0 -25 2q-50 6 -101 31.5t-98 59.5t-90.5 73t-75.5 71q-127 125 -234.5 269.5t-193.5 300.5q-23 37 -61 109.5t-72 159.5q-36 87 -56 179q-13 58 -12 110q0 31 4 60q-25 -29 -30 -71.5t-7 -77.5 q-3 -41 -3 -81v-20q1 -50 3 -102q6 -104 14.5 -205.5t18.5 -204.5q10 -102 23.5 -201.5t25.5 -201.5l8 -90t6 -92q2 -10 5.5 -38t-5.5 -36q-5 -5 -8 -5q-2 0 -3 1q-3 4 -4 11t0 14l1 8v39q-1 179 -33 359q-36 200 -69 396q-17 100 -29 202q-8 69 -8 137q0 34 2 67z" />
<glyph unicode="O" horiz-adv-x="1603" d="M38 527q-4 38 -4 76q0 95 24 191q32 134 106 246q74 111 180.5 192t230 126t257.5 53q26 2 53 2q107 0 211 -27q25 -6 57 -16q2 -4 6 -11t-10 -7q-53 2 -122 5q-41 2 -85 2q-28 0 -58 -1q-74 -2 -150 -11.5t-144 -29.5q-129 -41 -238.5 -121t-183.5 -197 q-74 -115 -100 -249q-14 -71 -13 -140q1 -61 11 -121q22 -127 96 -237.5t198 -177.5q122 -68 262 -88q60 -8 121 -8q78 0 154 14q135 26 256 96t207 180q51 68 86 150t50 168q11 61 11 123q0 25 -2 50q-6 87 -39 163q-18 -4 -36.5 -5.5t-36.5 -3.5q-103 -9 -211 -9 q-36 0 -74 1q-148 4 -279 53q-23 8 -47 21.5t-43.5 32t-29 41t3.5 51.5q12 29 36.5 49.5t55.5 34.5t63.5 22.5t61.5 12.5q45 7 91 7q19 0 37 -1q66 -4 127.5 -22.5t118 -51.5t99.5 -80q55 -61 88 -139q59 10 115.5 22.5t113.5 28.5q59 18 116.5 42t111.5 56q2 0 13 8.5 t22.5 14.5t20.5 8q7 2 7 -5q0 -9 -13 -19q-11 -8 -26.5 -16.5t-30 -14.5t-20.5 -8q-98 -51 -206.5 -82t-219.5 -47q37 -95 37 -201v-11q-2 -112 -35 -219.5t-92 -203.5t-133 -166q-98 -90 -224 -140.5t-260 -57.5q-22 -1 -44 -1q-112 0 -222 30q-131 36 -237 118 q-113 86 -173.5 204.5t-73.5 250.5zM726 1046q16 -28 55.5 -48.5t96 -35t110.5 -24.5t98 -14t59 -4q40 -2 79 -2q119 0 238 14q-33 70 -88 123t-139 88q-61 25 -129 33q-54 6 -107 6h-26q-29 0 -61.5 -2t-65.5 -9.5t-61.5 -21.5t-47.5 -39q-17 -24 -17 -43q0 -11 6 -21z" />
<glyph unicode="P" horiz-adv-x="1705" d="M66 1048q8 36 33.5 71.5t60.5 67.5t73.5 56.5t71.5 40.5q129 66 272.5 97.5t286.5 43.5q74 6 154 6q58 0 118 -3q146 -7 284.5 -44.5t254 -113.5t178.5 -203q45 -91 45 -172v-13q-4 -87 -43.5 -162t-108.5 -137.5t-152 -109.5t-171 -79t-166 -46q-98 -16 -194 -20 q-27 -1 -55 -1q-69 0 -140 7l13 -158q4 -49 6 -98t4 -96q2 -16 0 -25q-2 -13 -9 -13q-4 0 -8 5q-8 6 -6 22.5t2 24.5q-2 86 -7 170t-13 170q-39 4 -78 10t-78 16q-66 14 -129 37q-8 2 -24.5 6.5t-34 10.5t-32.5 12t-17 14q-4 8 4 10.5t19.5 -0.5t21.5 -6l10 -4 q76 -23 154 -36q43 -10 88 -17.5t92 -11.5q-8 82 -16.5 161.5t-14.5 159.5q-10 78 -12 156q-29 -6 -55.5 -9t-55.5 -7q-66 -8 -136 -12q-25 -1 -50 -1q-46 1 -94 5q-72 6 -140.5 23t-126.5 54q-51 33 -69 69q-12 25 -12 51q0 10 2 21zM92 1079q-12 -29 -13 -53q0 -25 14 -46 q26 -40 75 -65.5t107.5 -39t97.5 -17.5q64 -7 128 -7q43 0 87 3q108 8 213 33q-1 25 -1 50v25q1 38 5 76q4 41 13 86t38 76q2 2 9 7t13.5 6t9.5 -1t1 -14q-16 -23 -22.5 -56.5t-9.5 -72.5t-3 -76.5v-70.5v-25q57 14 113.5 33.5t111.5 42.5l90 39q6 2 15.5 6t16.5 6t12.5 0 t3.5 -14q-68 -47 -163.5 -85t-201.5 -61q0 -164 6 -325l8 -164q79 -7 159 -7q33 0 65 1q112 4 219.5 25.5t208 64.5t186.5 112q49 41 88 92.5t60 109.5q22 57 24 121v10q0 59 -23 118q-25 61 -67.5 111.5t-96 88.5t-115 64.5t-122.5 44.5q-119 33 -247 44q-83 7 -166 7 q-45 0 -91 -2q-129 -6 -257 -27.5t-245 -54.5q-47 -12 -100 -30.5t-102 -44t-90 -61.5t-62 -83z" />
<glyph unicode="Q" horiz-adv-x="1705" d="M12 436q23 10 72 12q16 1 33 1q34 0 69 -3q-4 16 -6 32l-4 32q-6 46 -6 91q0 86 20 169q31 127 97.5 236.5t166 195.5t222.5 137q84 35 171 50.5t177 19.5q41 0 83 -2t83 -10q39 -6 80 -19q-2 0 5 -3t14 -8t9 -9t-12 -4q-127 0 -253 3h-21q-115 0 -230 -30 q-131 -35 -245.5 -106.5t-198.5 -182.5q-49 -63 -82 -136t-50 -150q-15 -70 -15 -142q0 -6 1 -13q1 -79 19 -153l41 -6q72 -14 143.5 -34.5t143.5 -45.5q139 -47 275 -98t271 -102q49 -18 98.5 -37t98.5 -35q82 47 156 121q49 49 89 112.5t67.5 134t41.5 145.5q11 65 11 130 v19q-115 -47 -238 -69q-82 -15 -164 -15l-82 4q-59 4 -126.5 20.5t-127 47t-102.5 78.5t-49 118q-2 15 -2 29q0 56 26 101q33 56 87.5 96t122 61.5t128.5 25.5h23q52 0 106 -7q66 -9 125.5 -33.5t110.5 -63.5t90 -94q43 -61 64.5 -133t25.5 -146q111 47 203 121q6 4 16 16.5 t22.5 24.5t24 21.5t19.5 9.5q10 0 8 -6.5t-10 -14.5l-23 -22q-49 -47 -105.5 -83t-117.5 -65l-35 -16v-27q0 -99 -25 -195q-37 -143 -116.5 -261.5t-194.5 -200.5q80 -29 161 -54.5t163 -52.5q68 -20 139.5 -43.5t145 -40t147.5 -23.5q27 -3 54 -3q46 0 91 8q18 4 45 19.5 t43 15.5q4 4 10 -2q4 -2 4 -5t-3 -6q-23 -23 -47 -35q-63 -33 -136 -34q-12 -1 -23 -1q-61 0 -118 7q-104 14 -203.5 42.5t-197.5 63.5q-78 29 -155 58.5t-155 60.5q-86 -53 -185 -84t-210 -33q-125 0 -240.5 33t-210 97.5t-163 158.5t-97.5 217q-20 2 -38.5 3t-36.5 1 q-10 0 -28.5 -5t-37 -8t-31.5 -2q-8 1 -8 6q0 3 2 7zM215 430q27 -94 82 -178t145 -143q86 -59 187.5 -91t206.5 -36q19 -1 38 -1l174 17q105 20 197 68q-106 45 -211.5 90t-214.5 88q-115 45 -229.5 86t-233.5 71q-35 10 -70.5 17.5t-70.5 11.5zM782 979q-3 -16 -3 -32 q0 -39 17 -77q23 -55 83 -98q53 -37 115.5 -58.5t127.5 -30.5q54 -7 109 -7h25q67 2 128 12q133 18 263 72q-6 111 -54.5 204.5t-152.5 159.5q-53 33 -119 52.5t-133 24.5q-23 2 -45 2q-45 0 -89 -7q-65 -10 -122 -37q-63 -29 -102 -77t-48 -103z" />
<glyph unicode="R" horiz-adv-x="1732" d="M40 1040q3 34 23.5 66.5t50 62t64.5 55t66 42.5q121 63 252 97t266 50q117 14 246 21q38 2 76 1l182 -11q129 -16 247.5 -56.5t212.5 -122.5q82 -71 111 -149q22 -58 22 -119q-1 -20 -3 -40q-10 -81 -50.5 -161t-97.5 -151.5t-124.5 -133t-131.5 -106.5 q-78 -57 -163 -103t-177 -81l33 -13l356 -125q141 -49 284.5 -93t291.5 -66q71 -10 143 -16q21 -2 43 -2q50 0 100 10q16 4 35 7t35 9q6 2 9 -4q1 -2 1 -4q0 -4 -4 -6q-29 -16 -61.5 -27.5t-67.5 -17.5q-65 -12 -133 -12q-3 1 -5 1q-70 0 -140 12.5t-139.5 31t-135.5 38.5 q-98 31 -192.5 67t-190.5 75q-76 29 -150.5 60.5t-150.5 59.5q-57 -20 -121 -32q-25 -6 -48 -10.5t-48 -6.5q4 -41 5 -79t3 -76q2 -16 0 -25q-2 -8 -6 -12t-12 4q-6 6 -4 22.5t2 24.5q0 35 -1 69.5t-3 69.5q-25 -2 -48 -2q-55 0 -106 10q-18 2 -50 15.5t-53.5 32t-24.5 40 t34 43.5q45 27 101 27h15q64 -4 119 -18l-39 415q-10 80 -12 160q-23 -4 -46 -7t-46 -7q-68 -10 -142 -14q-33 -2 -66 -3q-41 -1 -82 3q-75 6 -145.5 24t-129.5 55q-47 29 -65 63q-15 29 -14 58v10zM52 1046q-2 -9 -1 -17q0 -32 25 -64q31 -39 77 -61.5t97 -35t104.5 -15.5 t98.5 -3q15 0 30 -1q67 0 133 8q80 9 158 26q-1 26 -1 52v25q1 38 5 78q4 41 12.5 86t36.5 76q8 6 22.5 13.5t10.5 -15.5q-14 -23 -21.5 -56.5t-9.5 -72.5t-2 -77.5v-69.5q0 -6 -1 -13.5t-1 -13.5q18 4 36 9t34 11q94 27 184 68q6 2 24.5 12.5t38 17.5t34 9t12.5 -10 q-12 -12 -39 -27.5t-57.5 -29t-64.5 -27t-60 -21.5q-35 -12 -71 -21t-71 -18q-1 -47 -1 -95q0 -118 7 -234q2 -66 5.5 -130.5t7.5 -129.5h6q63 -14 124.5 -33t121.5 -41q33 12 63.5 25.5t59.5 27.5q123 59 236.5 140t205.5 184q43 49 83 106t65.5 120.5t32.5 130.5 q2 15 2 30q0 52 -19 104q-25 66 -71 114t-105.5 82t-126 55.5t-129.5 33.5q-145 29 -292 29q-3 -1 -5 -1q-150 0 -297 -16q-143 -16 -288.5 -44t-274.5 -93q-31 -16 -73 -45t-72 -65.5t-39 -76.5zM575 235.5q0 -18.5 18.5 -35t48.5 -29.5t48 -15q52 -10 108 -11q20 0 40 2 q-2 29 -3 59t-6 58q-53 14 -109 19q-12 1 -23 1q-42 0 -81 -14q-41 -16 -41 -34.5zM846 260l6 -84q0 -8 1 -14t1 -15q53 4 103.5 16.5t99.5 29.5q-89 32 -189 61z" />
<glyph unicode="S" horiz-adv-x="1376" d="M54 868q20 60 63 111t100 92t105 68q123 72 256 118t270 78q178 41 360 59q149 15 298 16q32 0 65 -1q23 0 77 -4t120.5 -13.5t132 -25.5t110.5 -43t57 -65q3 -9 3 -19q0 -31 -29 -70q-23 -29 -55.5 -50t-69.5 -37.5t-76 -29t-72 -24.5q-63 -18 -125.5 -35.5 t-123.5 -34.5q-59 -16 -119 -31.5t-119 -33.5q-25 -10 -49.5 -18.5t-50.5 -16.5q-2 0 -14.5 -4t-27 -5t-23.5 0t-3 11q12 20 34.5 35.5t50.5 27t57.5 19.5t56.5 14q78 23 153.5 37.5t153.5 30.5q20 4 65.5 13.5t98.5 23.5t108.5 34.5t95.5 46t57 57.5q7 14 7 29q0 20 -12 42 q-14 27 -42 44t-60.5 27.5t-66.5 16.5t-61 10q-78 10 -155.5 10t-155.5 -4q-150 -8 -297 -28.5t-295 -51.5q-141 -29 -281.5 -68.5t-269.5 -101.5q-47 -23 -104 -57.5t-103.5 -80.5t-72.5 -102q-15 -32 -15 -66q0 -26 9 -52q16 -63 71.5 -103t125 -65t142 -39t123.5 -27 q98 -23 197.5 -43t198.5 -49l84 25q293 82 592 120t602 43q7 0 7 -3t-7 -7q-6 -4 -13.5 -6t-11.5 -2h-71.5t-71.5 -2q-78 -4 -157 -8t-157 -14q-150 -16 -297 -41t-294 -62l-181 -49q35 -12 69 -24.5t69 -28.5q23 -10 47 -24.5t43.5 -33t32 -42t12.5 -52.5q-2 -70 -45 -122 t-101 -84q-119 -69 -263 -83q-50 -5 -99 -5q-91 0 -176 18q-25 6 -55.5 14t-59.5 21.5t-51.5 33t-28.5 48.5q-6 31 7.5 58.5t36 51t50 43t49.5 31.5q88 53 184.5 94t194.5 74q-86 18 -174 32.5t-172 37.5q-55 14 -124.5 32.5t-136 47t-121 69.5t-79.5 100q-16 38 -16 74 q0 27 9 53zM382 48q17 -20 46 -35t59 -23q63 -16 134 -22q37 -3 74 -3l68 3q71 5 139.5 20.5t129.5 40.5q53 20 101.5 56t66.5 93q9 27 9 50q0 33 -19 58q-33 42 -92 66q-94 41 -205 64q-80 -25 -156.5 -56.5t-150.5 -68.5q-53 -27 -104.5 -58.5t-90.5 -78.5 q-27 -32 -27 -59q0 -26 18 -47z" />
<glyph unicode="T" horiz-adv-x="1603" d="M17 1365q0 5 12 9q25 -10 64.5 -14t85.5 -7t92 -5.5t81 -4.5q154 -10 306.5 -16t306.5 -12q78 -4 156.5 -6t156.5 -4q4 8 8 14t10 14q2 4 13.5 14.5t24 18.5t20.5 8t6 -16q-23 -16 -37 -55l240 -5l299 -6q10 -2 29.5 0t27.5 -6q2 -2 2 -5q0 -2 -1 -5q-3 -6 -9 -4 q-35 0 -71 2t-71 4q-115 4 -227 4h-227q-10 -31 -16.5 -67.5t-9.5 -73.5t-4 -72t-1 -61q-3 -82 -3 -162v-40q1 -100 5 -202q4 -100 9 -199.5t12 -197.5q2 -51 4 -101.5t2 -101.5q0 -4 1 -12t1 -17.5t-2 -16.5t-10 -7q-6 0 -8.5 7t-2.5 16.5t2 17.5t2 12v38q0 178 -17 354 q-19 196 -34 390q-8 96 -11 192q-1 19 -1 38q0 76 10 153q4 29 9 56.5t16 56.5h-178q-158 -2 -312 -3h-45q-133 0 -266 5q-72 4 -143.5 7t-141.5 14q-63 10 -121 30q-6 2 -17 7q-10 6 -18 11q-8 6 -9 12z" />
<glyph unicode="U" horiz-adv-x="1415" d="M55 567q0 117 19.5 234t60.5 227q23 57 49.5 109.5t63.5 99.5q16 20 34.5 38.5t41.5 35.5q12 10 25 18t30 14q2 -2 7 -4t-1 -6q-27 -25 -65.5 -77t-76.5 -118.5t-67 -140t-35 -139.5q-33 -131 -42 -269q-2 -33 -2 -65q0 -105 22 -207q12 -66 37.5 -126t65.5 -109 t94.5 -82t125.5 -39q20 -2 39 -1q51 0 99 10q68 16 129 46.5t117.5 72.5t103.5 91q72 72 133 162q-17 106 -19 223q-1 29 0 58q0 87 6 169q8 110 20.5 201.5t31.5 147.5q8 29 21.5 62.5t29.5 65t36.5 59.5t47.5 46q23 16 44 16q5 0 9 -1q24 -5 42 -23t28 -46t14 -52 q5 -39 5 -78q0 -30 -3 -60q-6 -70 -21.5 -139t-38 -137t-46.5 -129q-31 -78 -70 -162t-88 -164q10 -86 27.5 -162.5t44 -135t62.5 -94.5t85 -42q8 0 6 -1t-8 -2t-13 -1h-7q-51 0 -91 28.5t-70 78t-50.5 117t-32.5 145.5q-47 -68 -102.5 -130.5t-118 -111.5t-135 -84 t-152.5 -49q-46 -8 -87 -8q-84 -1 -148 33q-96 50 -154.5 143.5t-85.5 212.5t-27 231zM1097 637q1 -115 13 -223q35 53 63.5 111.5t55.5 117.5q55 127 95 265.5t44 279.5q0 20 -1 53t-10 63t-27 52q-17 20 -46 20h-6q-31 -2 -54.5 -25.5t-40 -55t-27.5 -66.5t-17 -58 q-12 -47 -22.5 -131t-15.5 -186q-4 -85 -4 -179v-38z" />
<glyph unicode="V" horiz-adv-x="1441" d="M53 1022q6 117 45 221q2 6 18.5 36t37 61.5t38.5 55.5q14 18 22 17q3 0 5 -2l-11 -25q-11 -26 -26.5 -59t-29 -61.5t-15.5 -34.5q-31 -115 -31 -234v-21q0 -104 18 -206q20 -112 54 -219q18 -57 46 -125t65 -136.5t84 -132t102 -109.5t119 -70q46 -17 97 -18q21 0 42 3 q55 6 104.5 29.5t93.5 57.5t82 76t68 83q68 86 123.5 182t100.5 197q47 106 87 214.5t68 219.5q14 57 25.5 112.5t21.5 114.5q4 29 7.5 56.5t7.5 56.5v15t1 18.5t4 13.5q2 2 4.5 2t6.5 -2q4 -19 4 -44q0 -17 -2 -38q-4 -51 -12 -109.5t-21.5 -119t-25.5 -107.5 q-66 -227 -168 -432q-49 -100 -106.5 -194.5t-129.5 -180.5q-35 -43 -78 -86t-91 -76.5t-103 -54t-115 -20.5q-53 2 -103 21.5t-94 50t-83 68.5t-72 79q-74 92 -128 196.5t-91 215.5q-35 106 -53 218q-14 85 -14 171q0 27 1 55z" />
<glyph unicode="W" horiz-adv-x="2113" d="M40 900v18q0 64 6 128q7 72 25.5 141.5t53.5 129.5q12 23 30.5 44t41.5 36q16 10 19 9t-1 -7t-11 -14.5t-11 -12.5q-47 -49 -64.5 -120.5t-26.5 -137.5q-9 -86 -9 -172q0 -62 4 -126q12 -150 40 -298q12 -66 30.5 -134.5t45.5 -135t63.5 -124.5t88.5 -104q55 -47 117 -55 q18 -2 35 -2q43 -1 84 13q58 20 111.5 60t92.5 89q55 68 96 145.5t74 163.5q-80 233 -84 484q0 16 1 62t6 104.5t16.5 120t29.5 107.5t44 68q14 11 31 11q15 0 32 -9q25 -12 38 -41.5t19 -63.5t7 -67.5t1 -58.5v-33q0 -58 -5 -116q-7 -74 -17 -146q-16 -92 -38 -184 t-52 -180q29 -121 77.5 -238t139.5 -203q55 -53 117 -73q46 -14 94 -14q18 0 34 2q64 7 125.5 39t114.5 79q102 96 172 220t115 257q39 117 59 244q11 69 12 138q0 57 -8 112q-110 -22 -227 -22h-28q-132 3 -249 50q-25 10 -50 23.5t-47.5 32t-38 42t-19.5 52.5 q-6 33 7 58.5t35.5 45t52.5 32.5t56 20q63 16 131 18h14q61 1 117 -15q64 -18 119.5 -53.5t93.5 -93.5q27 -41 43.5 -84t26.5 -90q61 14 123.5 36.5t119 55.5t104.5 77t81 99q11 23 17 20q5 -2 4 -5q0 -30 -79 -106q-48 -46 -105.5 -80.5t-120 -58.5t-123.5 -40 q-12 -4 -19 -4q11 -64 11 -129q0 -28 -2 -56q-7 -94 -27 -180q-33 -135 -94.5 -263t-147.5 -238q-41 -53 -94 -103.5t-113 -87.5q-62 -37 -130 -53q-34 -8 -69 -8t-71 8q-68 16 -123 58t-98 98.5t-76 120t-57 124.5q-6 16 -13.5 33t-11.5 33q-10 -29 -22.5 -55.5 t-24.5 -53.5q-27 -57 -61.5 -115.5t-78.5 -108.5t-99.5 -87t-121.5 -49q-28 -5 -54 -5q-37 0 -70 10q-56 17 -102 54t-84 88.5t-64 104.5q-66 129 -102 269t-48 284q-6 68 -7 142zM932 1143q-2 -40 -2 -80q0 -108 12 -218q16 -151 49 -294q2 -10 4 -21.5t6 -21.5 q10 31 18.5 62.5t18.5 64.5q34 135 56 277q15 97 15 194q0 45 -3 90q-2 14 -5 47t-12.5 64.5t-27 53t-45.5 13.5q-29 -8 -45.5 -36.5t-24.5 -63.5t-10 -72t-4 -59zM1402 1248q2 -30 19 -55.5t42.5 -47t52.5 -35.5q59 -31 126.5 -48.5t137.5 -21.5q27 -2 54 -1q44 -1 87 3 q70 6 135 19l-8 45q-34 143 -138 217q-99 70 -234 70h-15q-31 0 -63.5 -4.5t-64.5 -13.5t-59.5 -25.5t-48.5 -40.5q-23 -28 -23 -55v-6z" />
<glyph unicode="X" horiz-adv-x="1705" d="M20 -84q4 10 14.5 17.5t18.5 13.5q92 92 185.5 180t187.5 178l408 389q-106 92 -209 183.5t-197 195.5q-41 45 -80 93t-65 106q-12 25 -20.5 50.5t-4.5 53.5q2 10 4 18.5t8 16.5q4 4 12.5 5t4.5 -11q-6 -23 4 -50.5t27.5 -56t39 -56.5t39.5 -50q41 -53 85 -100.5 t91 -94.5q70 -72 141.5 -141.5t145.5 -136.5l207 192q100 92 200.5 180.5t207.5 174.5q47 39 94 74.5t100 66.5q6 4 28.5 16.5t46.5 22.5q22 10 40 12h4q9 0 10 -7q0 -3 -2 -7q-16 -12 -47 -36t-67.5 -51.5t-72.5 -55.5t-63 -48q-121 -94 -236.5 -192t-232.5 -199l-192 -166 l104 -94q106 -98 214 -191.5t218 -189.5l215 -192l105 -101q4 -4 2 -10t-10 -6q-10 0 -20.5 14.5t-16.5 20.5q-199 199 -411 373t-427 352q-129 -113 -254 -227.5t-250 -231.5l-198 -190l-105 -103q-4 -4 -13 -15q-5 -6 -9 -6l-9 5q-4 2 -4 5t4 7z" />
<glyph unicode="Y" horiz-adv-x="1173" d="M58 270q34 52 91.5 94t108.5 66q41 20 81 36.5t83 31.5q-86 57 -152.5 140t-107.5 169q-39 78 -60 164q-16 63 -16 126q0 24 2 48q6 88 45 160q2 4 16.5 24.5t31 41t31.5 34.5t21 6q2 -2 -7 -19.5t-20 -38t-22.5 -39t-13.5 -24.5q-16 -41 -22.5 -83t-6.5 -85v-14 q0 -79 21 -157q22 -85 61 -163q37 -76 94.5 -151.5t131.5 -128.5q90 29 182 50.5t184 37.5l154 27q41 59 71.5 123.5t53.5 123.5q29 72 47 148t33 153q8 37 12 75t8 75q2 20 3 39.5t5 38.5l2 9t5 18.5t7 14.5q1 2 2 2q2 0 3 -5q4 -16 4 -21q8 0 8 -8q0 -14 -1 -32.5 t-1 -43.5q-2 -55 -8 -133t-16.5 -168t-27 -189.5t-40.5 -197.5q135 14 270 25q72 4 144.5 8t144.5 8q8 0 27.5 3t25.5 -3q3 -3 3 -6q0 -1 -1 -3q-2 -5 -8 -5l-143 -4q-117 -4 -234 -12.5t-233 -20.5q-25 -100 -59 -191t-79 -165q-68 -113 -172 -204t-233 -128 q-61 -16 -130 -21q-21 -1 -41 -1q-49 0 -97 7q-68 11 -131.5 38.5t-110.5 72.5q-60 56 -60 114t36 113zM38 153q15 -53 64.5 -88.5t117 -56t120.5 -24.5q38 -3 75 -3q79 0 157 14q116 21 214 87q100 66 167 168t112 213q31 74 53 170l-139 -17q-66 -88 -153 -146 q-71 -48 -162 -48q-19 0 -39 2q-51 4 -99.5 21.5t-91.5 43.5q-100 -33 -197.5 -82t-160.5 -131q-41 -55 -41 -99q0 -12 3 -24zM461 500q49 -35 105 -52q46 -15 95 -15q12 0 23 1q88 6 156.5 56.5t122.5 121.5q-117 -16 -227.5 -39.5t-221.5 -56.5zM987 625l133 18 q27 102 44.5 210t29.5 196l10 106q-4 -8 -5 -16.5t-3 -16.5q-35 -160 -100 -303q-23 -47 -48.5 -97t-60.5 -97z" />
<glyph unicode="Z" horiz-adv-x="1337" d="M35 1057q4 63 43 113.5t95 87t118.5 62.5t111.5 42q137 42 281 56q79 7 158 8q65 0 129 -5q59 -4 128.5 -12t135 -27.5t124 -52.5t97.5 -86q41 -56 41 -121v-6q-2 -68 -30.5 -135.5t-72.5 -127.5t-83 -105q-84 -96 -180.5 -179.5t-202 -156t-216 -136t-223.5 -122.5 q81 25 171 36q44 5 87 5q45 1 88 -5q85 -12 158.5 -51t126.5 -114q62 -90 61 -194q0 -108 -42 -210q-20 -47 -47 -93t-58 -87q-6 -6 -29.5 -36t-52 -61.5t-52.5 -53.5q-19 -18 -26 -18q-2 0 -4 1q-2 2 19.5 27.5t49.5 56.5t53.5 59.5t31.5 34.5q41 57 75 120.5t50 131.5 q10 45 10 87q1 80 -35 152q-54 110 -172 171q-116 58 -244 58h-20q-139 -5 -266 -56q-4 -2 -12.5 -7.5t-17.5 -10.5t-17 -8t-15 -1q-6 2 -6 5t4 7v4l13 5q14 10 29.5 17t19.5 9q66 35 129 70t125 76q119 76 230.5 159.5t217.5 175.5q49 43 102.5 91.5t100.5 101.5t85 112.5 t56 125.5q12 43 12 79q0 50 -22 86q-39 64 -121 100t-190.5 50t-218.5 15h-24q-96 0 -179 -7q-94 -8 -148 -14q-111 -14 -222 -44t-201 -100q-41 -33 -74 -80q-27 -38 -26 -81q0 -10 1 -21q8 -51 48 -81.5t83 -47.5q83 -29 173 -30q23 1 47 3q116 10 221 31q55 12 109 27.5 t108 32.5q27 10 52.5 19t53.5 17q6 2 15.5 5.5t18.5 4.5t13 -2t2 -14q-4 -8 -32.5 -20t-68.5 -26.5t-82 -27t-73 -20.5q-141 -39 -290 -49q-22 -2 -48 -2q-33 0 -74 3q-73 5 -139.5 25.5t-112.5 62.5q-42 39 -42 104v12z" />
<glyph unicode="a" horiz-adv-x="331" d="M-8 143q6 100 47 189q20 41 47 79t68 60q10 5 34 15q15 6 25 6q6 0 10 -3q14 0 10 -14q4 -6 0 -18.5t-4 -22.5q-2 -29 -3 -55.5t-1 -54.5q0 -55 3 -110.5t5 -109.5q0 -12 3.5 -31.5t10.5 -34.5t18 -19.5t30 14.5q16 20 23.5 48t11.5 52q2 12 1 41t3 33q6 6 9 2t4 -11.5 t1 -14.5t0 -5q-4 -29 -8 -56.5t-12 -55.5q-10 -26 -30 -50q-14 -16 -34 -17q-9 0 -18 3q-23 8 -36 27.5t-20.5 43t-10.5 48t-3 43.5q-8 -31 -18.5 -60.5t-25.5 -53.5q-16 -24 -34 -38q-16 -13 -37 -12h-6q-20 2 -33.5 18.5t-19.5 39t-8 46t-2 39.5zM40 78v-11q0 -11 1 -21 q2 -15 12 -23q7 -6 15 -5q10 0 18 7q16 14 30.5 38.5t25 50t12.5 31.5l12 40t10 42q2 41 8 83t15 83q0 4 4 30t10 44v2q-29 -2 -51.5 -18.5t-39 -40t-28.5 -51t-18 -52.5q-27 -86 -29 -168q0 -10 -3 -26.5t-4 -34.5z" />
<glyph unicode="b" horiz-adv-x="331" d="M-18 352q-2 35 -2 69q0 75 8 148q8 98 26.5 194.5t48.5 188.5q10 29 23.5 66t42.5 55q13 8 23 8q7 0 13 -4q13 -10 21.5 -30.5t10.5 -44t2 -33.5q-2 -109 -28 -214.5t-54 -207.5q-29 -109 -62 -215q-4 -10 -9 -35t-13 -43q2 -47 9 -96t19.5 -86t31.5 -51.5t48 8.5 q18 14 39 84q-35 10 -54.5 47t-25.5 84q-3 26 -3 52q0 22 2 45q5 50 20 89q14 37 32.5 47t35 2t31.5 -30.5t24 -49.5q16 -53 16 -110q0 -15 -1 -29q-5 -72 -32 -137q35 4 66 28.5t43 55.5q8 18 15 12q4 -3 4 -8q0 -4 -3 -10q-18 -39 -59 -64q-20 -12 -37.5 -18t-34.5 -10 q-6 -14 -13 -28.5t-18 -27.5q-28 -43 -56 -48q-6 -1 -12 -1q-22 0 -40 14q-24 18 -40.5 52t-25.5 67q-27 104 -32 215zM31 297q14 41 33.5 106.5t39 138t37 144.5t27.5 127q2 14 10 53t12 80q1 14 1 28q-1 25 -5 47q-6 34 -30 40q-3 1 -6 1q-12 0 -22 -14q-12 -16 -22 -39.5 t-15 -46t-7 -32.5q-31 -135 -39 -277.5t-14 -281.5v-74zM112 296v-12q0 -28 4 -56q5 -34 20.5 -61.5t43.5 -37.5q0 -2 4 -2q12 49 20 111q7 54 6 101v12q-1 52 -11 87q-9 33 -31 33h-2q-12 0 -21.5 -14.5t-15.5 -35t-9 -40t-3 -27.5q-4 -24 -5 -58z" />
<glyph unicode="c" horiz-adv-x="294" d="M1 183q-1 12 -1 24q0 35 7 71q9 48 24 84q12 31 35.5 63t51.5 48q22 13 44 13q6 0 11 -1q28 -4 50 -43q15 -27 19 -75q1 -14 1 -29q1 -33 -7 -66q-10 -47 -35 -82.5t-68 -37.5q-10 0 -9 8t6 19t11 22.5t9 15.5q18 35 32.5 71t20.5 74q2 16 2 38t-6 39.5t-20.5 26.5 t-39.5 1q-39 -12 -55 -54t-23 -77q-4 -27 -7 -82q-1 -16 -1 -31q-1 -39 5 -79q8 -56 32 -94q19 -31 54 -31q7 0 16 1q41 6 69.5 40t44.5 71q6 16 13.5 46t13.5 32q5 -3 5 -14q0 -5 -1 -13q-4 -22 -18.5 -52t-37 -59.5t-51 -49t-60.5 -21.5h-4q-29 0 -60 23 q-37 29 -53.5 70.5t-19.5 89.5z" />
<glyph unicode="d" horiz-adv-x="356" d="M2 135q-3 23 -3 46q-1 47 13 95q20 72 62 127q23 29 50.5 50.5t61.5 29.5q2 0 4.5 1t6.5 1q4 66 10 128.5t16 123.5q10 63 27.5 128t46.5 124q14 27 32.5 43.5t36.5 17.5h2q18 0 30 -16q12 -18 14 -55v-13q0 -106 -31 -216q-33 -116 -66 -226l-61 -207q-4 -18 -7 -37.5 t-7 -39.5v-45q0 -10 4 -47t13 -73t24.5 -52.5t40.5 14.5q20 25 26 58.5t8 64.5v25.5t6 23.5q4 4 8.5 2t4.5 -8q0 -4 -1 -39t-10 -74q-8 -40 -26 -68q-15 -24 -40 -23q-5 0 -11 1q-37 4 -53.5 47t-22.5 92q-8 -25 -19.5 -47t-25.5 -43q-29 -41 -56.5 -45t-50 13.5t-38 50 t-19.5 67.5zM44 159q-1 -15 -1 -30q0 -20 2 -40q4 -34 21 -56q14 -20 30 -20q8 -1 14 3q24 12 43 40t34.5 61t19.5 47q0 4 2 6q-2 20 -3 37.5t-1 28.5q-4 56 -7 114q-2 34 -2 70q0 23 1 47q-47 -12 -80 -66.5t-47 -113.5q-6 -25 -14.5 -58.5t-11.5 -69.5zM242 334l32 110 q18 51 31 105q16 57 30.5 112.5t26.5 112.5q4 25 12.5 57.5t14.5 66.5q5 29 5 57v9q-1 32 -15 56q-6 9 -13 9q-6 1 -14 -9q-14 -18 -26.5 -49t-21.5 -60.5t-9 -33.5q-16 -72 -23.5 -146t-13.5 -147q-4 -63 -9 -126t-7 -124z" />
<glyph unicode="e" horiz-adv-x="272" d="M0 160q-2 21 -2 42q0 32 5 66q9 54 22 92q10 33 29.5 71t54.5 54q17 8 30 8q8 0 14 -3q17 -7 26 -24t11 -41t-2 -42q-10 -45 -32.5 -86t-46.5 -78q-12 -20 -24.5 -38.5t-27.5 -35.5q2 -29 9.5 -53t19.5 -42.5t31.5 -27t46.5 0.5q41 10 66.5 48t37.5 76q2 8 2 21.5t2 24 t7.5 15.5t15.5 -5q0 -25 -13.5 -64t-39.5 -73q-25 -34 -60 -54q-22 -13 -47 -12q-15 0 -31 4q-51 14 -74.5 58t-29.5 98zM53 168q23 27 45.5 57.5t41 62t28.5 66.5t10 70q0 29 -12 38q-9 7 -21 7q-3 0 -7 -1q-16 -3 -32 -16.5t-24 -29.5q-16 -39 -22.5 -81t-6.5 -83 q-2 -16 -2 -39t2 -51z" />
<glyph unicode="f" horiz-adv-x="221" d="M-52 193q-3 3 -3 7q0 5 6 11q18 14 49 14q0 84 3 165t17 155q12 70 30 136.5t40 131.5q18 55 44 117.5t73 101.5q22 18 40 18h5q20 -3 33.5 -18.5t19.5 -40t6 -45.5q-2 -68 -18.5 -133t-36.5 -129q-23 -66 -46.5 -129t-49.5 -127l-64 -133q-4 -8 -13 -28.5t-22 -43.5 q23 -2 42.5 -5t35.5 -5q18 -2 43 -2t39 16q6 10 15.5 1t-0.5 -17q-8 -18 -33 -25.5t-53.5 -8.5t-57.5 1t-43 6q0 -39 -1 -77.5t-1 -79.5q-2 -59 -6 -119t-14 -119q-10 -57 -27 -104q-4 -2 -12 -5h-2q-5 0 -2 11q18 89 18 206v24q-2 132 -2 276q-29 6 -37 -2q-8 -10 -15 -2z M49 240q12 20 23.5 40.5t23.5 43.5q35 72 66 144.5t57 145.5q25 70 45.5 140.5t28.5 142.5q1 9 1 26v18q-1 30 -8 55.5t-24 35.5q-4 3 -10 3q-14 0 -33 -17q-43 -39 -63.5 -102.5t-34.5 -118.5q-20 -76 -32.5 -154t-22.5 -156q-10 -63 -13.5 -124.5t-3.5 -122.5z" />
<glyph unicode="g" horiz-adv-x="288" d="M2 128q-3 29 -3 55q0 35 5 65q6 55 28.5 116.5t69.5 96.5q27 18 53.5 16t53.5 -16l12 98q0 -2 1 11.5t7 17.5q2 2 5 2q2 0 4 -1q6 -3 6 -9q0 -2 -1 -3.5t-1 -3.5q4 -12 -1 -32.5t-5 -30.5q-4 -35 -5.5 -71t-3.5 -70q-3 -61 -3 -122v-30q1 -76 1 -151v-68l21 43 q12 29 23.5 59.5t17.5 61.5v10t2 21.5t6 17.5t12 -2t8 -24q0 -9 -3 -21q-7 -33 -23.5 -70t-34.5 -70.5t-25 -46.5q-4 -4 -4 -8q0 -123 -5 -245.5t-38 -239.5q-6 -25 -21.5 -46.5t-31.5 -31.5q-9 -6 -19 -6q-7 0 -16 4q-18 8 -31 43q-18 49 -18 104q0 16 1 32q7 73 30 134 q18 47 42.5 92.5t51.5 92.5q2 129 12 258v4q-16 -59 -39 -105q-6 -12 -17 -26.5t-24.5 -23.5t-29 -9t-27.5 16q-37 45 -43 112zM43 69q4 -40 27 -49q25 -12 45 27t37.5 104.5t31 144.5t23.5 146q-22 20 -41 20q-6 0 -12 -2q-25 -9 -42.5 -36t-28.5 -60t-15 -53 q-4 -18 -11.5 -62t-12.5 -92q-3 -27 -3 -51q0 -19 2 -37zM64 -463q2 -31 9 -58.5t23 -47.5q8 -10 15 -10t13 10q13 20 21.5 55t12.5 68.5t4 39.5q4 72 5 140.5t3 138.5q-33 -53 -59.5 -107.5t-36.5 -113.5q-4 -25 -8 -54q-3 -19 -3 -39q0 -11 1 -22z" />
<glyph unicode="h" horiz-adv-x="378" d="M-1 234q1 90 5 183t12 165q8 66 19.5 130t27.5 128q6 23 15.5 58.5t25 69t38 58.5t53.5 25q35 0 45 -30q7 -20 7 -47q0 -13 -2 -28q-5 -45 -20.5 -99t-34 -104.5t-34 -90.5t-21.5 -54q-23 -57 -43 -112.5t-37 -112.5l-10 -197q14 51 33 101.5t35 91.5q6 12 14 32.5 t19.5 39t25.5 32.5t33 16q16 0 26.5 -8t16.5 -22.5t10 -28.5t6 -27q8 -46 8 -93v-20q-2 -58 -6 -114q0 -12 -3 -37.5t-2 -52.5t8 -46.5t30 -21.5q20 -4 35.5 10.5t25 34t13.5 42t6 38.5q2 10 0 34t6 32q6 6 9 0q3 -7 4 -17q0 -5 0.5 -10t-0.5 -10l-1 -10q-4 -39 -15 -85 t-50 -67q-31 -16 -56.5 -3t-37.5 44q-20 49 -22 103q-1 21 -1 42q0 33 2 64q2 20 6 47t7 52.5t2 51t-9 46.5q-12 29 -33.5 5t-42 -66t-38 -83t-19.5 -49q-16 -53 -29.5 -106.5t-23.5 -108.5q-2 -6 -2 -22.5t-2 -30.5q-1 -14 -7 -24q-3 -6 -8 -5q-3 0 -6 2h-2q-6 29 -9 101 q-2 54 -2 119v45zM59 446q29 86 65.5 170t65.5 170q8 20 18 51q12 31 20 63q10 36 9 67q0 28 -12 49q-13 24 -27 24q-4 0 -10 -4q-20 -12 -37.5 -40.5t-29.5 -61.5t-15 -41q-23 -102 -29.5 -206.5t-15.5 -209.5v-12t-2 -19z" />
<glyph unicode="i" horiz-adv-x="198" d="M-2 274q0 68 25 134q0 2 5 12t12 19.5t13 13.5t6 -9q0 -10 -4 -46t-8 -82t-5 -98v-17q0 -42 4 -78q5 -43 18 -73t38 -32q20 -2 39 20.5t32 54.5t20.5 62.5t5.5 47.5q0 8 10 11q8 2 8 -7q-1 -20 -17 -74q-14 -47 -38 -85q-22 -38 -52 -49q-6 -2 -12 -2q-24 0 -51 38 q-35 49 -44 115q-6 45 -6 87q0 19 1 37zM20 678q0 23 14.5 34t33 11t33 -11.5t14.5 -33.5q0 -23 -14.5 -34t-33 -11t-33 10t-14.5 35z" />
<glyph unicode="j" horiz-adv-x="182" d="M-84 -467q-1 15 -1 29q0 22 2 44q3 36 7 60q10 57 33 106.5t51 96.5q-4 86 -6 169t-2 169q-1 27 -1 54v27q1 40 9 81q0 6 3 22.5t8.5 31.5t12.5 24.5t17 -1.5q0 -12 1 -57t1 -100.5t1 -110.5t1 -90v-149q35 49 66 100t53 108q2 4 3 14.5t3 22t5 19.5t10 8q8 0 9 -11v-5 q0 -8 -2 -17q-3 -12 -7.5 -23.5t-4.5 -13.5q-25 -63 -61.5 -119.5t-73.5 -113.5q0 -100 -4 -200.5t-18 -199.5q0 -10 -5.5 -32.5t-13.5 -43t-22 -29.5q-4 -3 -10 -3q-9 0 -21 10q-23 20 -32 53t-11 70zM-69 -452q1 -37 9.5 -71t28.5 -55q5 -4 9 -4q6 0 12 10q8 15 13 37.5 t7 44t2 23.5q3 62 3 123v30q-1 76 -5 154q-23 -37 -39 -75.5t-26 -81.5q-6 -25 -11 -61q-3 -29 -3 -60v-14zM10 678q0 23 14.5 34t32 11t31.5 -11.5t14 -33.5q0 -23 -14 -34t-31.5 -11t-32 10t-14.5 35z" />
<glyph unicode="k" horiz-adv-x="329" d="M-1 238v52q0 53 1 108q2 83 8 149t15.5 129t25.5 127q12 55 31.5 121.5t64.5 107.5q16 14 40 18q5 1 10 1q18 0 30 -13q23 -20 21 -53t-6 -57q-10 -66 -34 -129.5t-46 -126.5q-23 -63 -46.5 -126t-45.5 -126q-4 -6 -8.5 -30.5t-12.5 -53.5l-6 -96q12 10 29.5 21t25.5 22 q23 25 38.5 52t27.5 56q2 6 9 26.5t15.5 43t17.5 37t15 8.5q17 -25 17 -54q0 -18 -8 -40q-20 -54 -66 -99q-23 -20 -45.5 -37.5t-44.5 -35.5q31 10 59.5 8t50.5 -31q14 -20 19.5 -42.5t6.5 -45.5t3 -45.5t10 -42.5q12 -29 28.5 -29t32 16.5t26.5 41t14 43.5q2 23 6 47t2 47 q-2 14 7 11t9 -11q0 -2 -2 -24.5t-7 -53.5t-15.5 -60.5t-26.5 -48.5q-22 -22 -48 -22q-7 0 -15 2q-34 8 -52 43q-10 18 -13 42t-6 47.5t-8.5 45t-17.5 37.5q-12 18 -36.5 15t-41.5 -9q-2 -2 -7 -5t-9 -5q-2 -31 -4 -63.5t-6 -65.5l-6 -72q-2 -8 -9.5 -9t-7.5 9 q-2 25 -5 87.5t-4 140.5zM53 418q23 66 48.5 129t48.5 129q23 61 45 124.5t32 129.5q5 25 5 53t-17 43q-11 9 -22 9q-9 0 -17 -4q-20 -11 -31 -27q-33 -45 -44 -105.5t-17 -114.5q-10 -72 -15.5 -144.5t-9.5 -143.5z" />
<glyph unicode="l" horiz-adv-x="204" d="M-8 420q14 152 51 289q16 61 38.5 120.5t51.5 116.5q10 18 30.5 48t44.5 48q22 17 43 17h5q23 -2 37 -45q12 -39 12 -85q0 -17 -2 -36q-6 -68 -25.5 -141.5t-49 -150.5t-63.5 -147.5t-69 -131t-61 -101.5q-2 -6 -8 -8q0 -6 1 -12t1 -11q0 -20 6 -56t18.5 -65.5t34 -44 t55.5 8.5q29 23 43.5 57.5t18.5 69.5v17t1 20.5t5 13.5t14 -4q0 -12 -3 -40t-13 -57.5t-27.5 -57.5t-46.5 -40q-17 -7 -32 -7q-9 0 -17 3q-20 8 -35.5 27.5t-25 45t-13.5 46.5q-23 100 -23 205q-1 44 3 88zM27 236q90 145 160.5 302.5t99.5 327.5q2 12 3 50v9q0 33 -6 62 q-8 33 -24 49q-6 6 -13 6q-14 0 -36 -20q-25 -23 -41 -52.5t-27.5 -63.5t-19.5 -67.5t-14 -62.5q-31 -131 -55.5 -268t-26.5 -272z" />
<glyph unicode="m" horiz-adv-x="489" d="M-14 48q0 48 7 105.5t19 112.5q-6 35 -9 68t-7 67v36t3 54.5t10 44.5q4 10 10 9q5 0 12 -6q6 -23 10 -61t8 -85q20 49 44 76t50 16q41 -16 55.5 -72.5t16.5 -117.5q10 43 22.5 83t34.5 75q14 23 38 34t44 -14q25 -31 28 -80t3 -86q0 -18 -6 -64q-6 -47 -8 -95v-21 q0 -35 5 -65q7 -38 34 -44q33 2 47 33t20 67t9 65.5t10 29.5q6 0 6 -33t-9.5 -72.5t-29 -72.5t-51.5 -33q-41 0 -59.5 35t-23.5 82q-3 29 -3 59q0 18 1 35q3 47 5 72q4 39 10 77q3 19 3 38.5t-3 37.5q-4 31 -15.5 32t-23.5 -11.5t-23.5 -31.5t-15.5 -30q-16 -51 -26.5 -102 t-18.5 -105l-6 -49q-2 -41 -5 -79.5t-7 -77.5q-2 -25 -7.5 -27t-9.5 6t-9 23.5t-7 25.5q-8 60 -8 120v24q2 72 6 145q0 8 -1 43t-6 68.5t-17.5 53t-35.5 -4.5q-18 -20 -31.5 -44t-23.5 -52q4 -59 5 -117t1 -101q0 -20 1 -39.5t1 -37.5q0 -6 -1 -37t-6 -63t-13 -52 q-5 -12 -12 -12q-5 0 -11 6q-4 4 -4 6q-14 12 -20 47t-6 83zM-4 35q-1 -9 -1 -19q0 -37 13 -69q2 -6 7 -10.5t10 -8.5q0 2 2 2q14 10 14 38v42q1 14 1 28q0 34 -4 70q-5 50 -13 97l-7 28q-4 -29 -7 -57t-7 -53q-4 -41 -8 -88z" />
<glyph unicode="n" horiz-adv-x="368" d="M-10 375q0 49 8 96q2 6 4 20.5t7 29t11 21.5q3 3 7 3t10 -4q8 -27 9 -74v-49v-52q-1 -54 -4 -109.5t-4 -96.5q-2 -29 -2.5 -58.5t-0.5 -58.5q12 74 27.5 146.5t37.5 144.5q6 16 12.5 37.5t14.5 43t20.5 40t28.5 28.5q20 12 34.5 3t24 -27.5t13.5 -40t6 -33.5q4 -39 4 -78 t-4 -78q0 -18 -3 -39.5t-4 -43t0 -42t9 -38.5q10 -23 25.5 -23t29 11.5t24.5 27.5t15 29q2 4 4 21.5t6.5 35.5t8.5 31.5t10 9.5q5 -7 5 -21q0 -16 -5 -40q-4 -18 -11.5 -36t-9.5 -26q-6 -14 -18 -27.5t-25.5 -21.5t-30 -10t-32.5 8q-35 23 -46 67q-10 41 -10 89v9 q1 52 8 102t9 83q2 18 -1 38.5t-10 33t-18.5 10.5t-27.5 -31q-20 -39 -32.5 -81t-23.5 -83q-12 -47 -21 -96t-20 -98l-16 -88q0 -2 -5 -10q0 -2 1.5 -4.5t1.5 -6.5q2 -6 -4 -8q-2 -1 -4 -1q-4 0 -6 3q-2 0 -2 4q-4 18 -4.5 37t-4.5 37q-6 59 -13 118.5t-11 119.5 q-2 47 -2 96z" />
<glyph unicode="o" horiz-adv-x="329" d="M0 182q-2 16 -2 33q0 22 3 49q5 47 19.5 92t41 81t67.5 48q14 4 28 4q25 0 43 -14q30 -22 42 -59q2 -4 5 -20.5t5 -39t4 -44.5q1 -11 1 -21.5t-1 -18.5q2 -18 1 -38q1 -40 -7 -82q-12 -62 -29 -95q-20 -37 -56 -52q-15 -6 -30 -6q-22 0 -45 13q-47 23 -66.5 72t-23.5 98z M51 210q4 -46 10 -81q2 -16 8.5 -37.5t16.5 -37.5q10 -18 26 -28q12 -8 28 -7q6 0 12 1q23 2 38 17.5t25 36t15.5 43t7.5 41.5q4 31 4 64v23q-2 46 -21 87q-4 8 -13 15t-17.5 15.5t-10.5 14.5t10 10q35 -12 52 -55q0 23 -1 40t-3 21q-6 20 -17.5 38t-28 29t-36 11t-39.5 -16 q-31 -25 -46.5 -66t-19.5 -87q-2 -23 -2 -46t2 -46z" />
<glyph unicode="p" horiz-adv-x="342" d="M-115 -479q0 37 4.5 71.5t6.5 51.5q6 80 18 157.5t29 155.5q14 66 29.5 130.5t33.5 129.5q-2 123 -5 242t-3 239q0 4 4 16.5t10 21.5t14 10q0 1 1 1q6 0 12 -16q2 -4 4 -17.5t3 -29.5t3 -33.5t2 -29.5q0 -47 1 -91.5t1 -89.5v-78q12 31 28.5 57.5t39.5 49.5 q25 23 46 18.5t39.5 -20.5t32 -41t19.5 -45q11 -42 11 -88q0 -20 -2 -41q-7 -68 -29 -127q-6 -14 -16.5 -32.5t-24 -35t-29.5 -28t-37 -9.5q-31 2 -45 37q-2 6 -5 19.5t-5 29t-1 27.5t7 19q8 6 10 2t2 -12.5t-1 -16.5t-1 -6q0 -16 3 -44t24 -36q16 -6 29.5 2t22.5 23.5 t15.5 34t8.5 28.5q6 23 11 73t5 103t-7 99.5t-26 62.5q-16 12 -33.5 4t-34 -30.5t-30.5 -53.5t-27 -61q-4 -250 -18 -492q-2 -12 -4 -49t-6.5 -85t-12.5 -100.5t-20 -94.5t-28 -67q-14 -19 -31 -19q-4 0 -9 1q-23 6 -31 36t-8 67zM-96 -404q-1 -18 -1 -35q0 -43 7 -85 q6 -29 14 -35q4 -3 7 -3q5 0 9 4q9 7 17 23.5t12 32.5q33 121 34 251t3 253q0 47 1 91v30q0 30 -1 61q-35 -117 -55.5 -233.5t-34.5 -235.5q-8 -59 -12 -119z" />
<glyph unicode="q" horiz-adv-x="296" d="M-5 110q-1 14 -1 28q0 20 2 39q4 34 8 54q14 61 43 120t78 100q45 37 100 38q0 -2 1 -2t1 -2q10 10 9 -6q6 -14 -0.5 -40.5t-12.5 -49.5q-2 -23 -3 -43t-1 -43q-2 -57 -2 -113.5t-4 -115.5q-4 -53 -5 -105.5t-3 -105.5l22 -4q18 -2 42 -2t38 16q8 10 17 1q3 -4 3 -8 q0 -5 -5 -9q-10 -23 -45 -29q-26 -4 -54 -4h-18q-2 -23 -2 -43.5v-42.5q0 -61 1 -122.5t5 -121.5q0 -4 2 -16.5t4 -25.5t0 -23.5t-8 -10.5h-2q-7 0 -11 10q-6 13 -9 30.5t-5 32.5t-2 22q-12 78 -17 157.5t-7 157.5q-16 4 -21 4q-6 0 -17.5 4t-24.5 6t-25.5 2t-16.5 -6 q-8 -10 -15 -1t3 20q14 16 48 16t69 -4v98t4 99q0 14 1 27t1 30l-8 -25q-6 -12 -16.5 -32.5t-24 -38t-31 -25.5t-37.5 2q-25 12 -35 42t-13 64zM35 58q2 -33 22 -40q7 -2 13 -2q27 0 48 40q27 50 48 124q8 72 19.5 140.5t27.5 140.5v2q0 4 2 6v2q-31 0 -54.5 -20.5t-42 -51 t-30.5 -66.5t-20 -69q-4 -12 -13.5 -51t-15.5 -80q-5 -31 -5 -57q0 -9 1 -18z" />
<glyph unicode="r" horiz-adv-x="274" d="M-59 498q-1 8 -1 16q0 18 7 32q10 20 33 21q23 0 31.5 -33.5t13.5 -84.5q23 -7 49 -7q12 0 26 2q40 5 76 5q16 -2 13 -7.5t-13 -15.5q-18 -23 -26.5 -53.5t-12.5 -59.5q-8 -43 -10 -86t-6 -86q0 -16 1 -39.5t8 -44t21.5 -33t41.5 -6.5t42 31t25 47q4 16 8 32.5t6 33.5 v26.5t5 24.5q8 10 10 2t2 -20q0 -14 -4 -35q-4 -29 -13.5 -58.5t-25.5 -54.5q-25 -35 -63 -43q-7 -1 -13 -1q-30 0 -53 30q-35 43 -44 100q-4 27 -4 53q0 29 5 58q10 45 32.5 83t45.5 79q-8 -4 -9 -5q-29 -12 -59.5 -10t-60.5 12q0 -59 -3.5 -115.5t-5.5 -90.5 q0 -6 -9 -10.5t-7 16.5q2 20 7 80.5t5 124.5q-31 12 -49 37t-22 53zM-42 524v-8q0 -6 1 -10q10 -33 37 -45q4 -4 16 -8q-2 35 -7 61.5t-15 36.5q-7 6 -13 6q-1 0 -3 -1q-6 -3 -10.5 -11.5t-5.5 -20.5z" />
<glyph unicode="s" horiz-adv-x="266" d="M-31 467q-1 6 -1 12q0 32 20 35h3q19 0 29 -37q4 -16 4.5 -36.5t0.5 -43.5q2 -6 6 -6q33 -29 68.5 -54.5t64.5 -57.5q25 -27 42 -70q18 -46 18 -89q0 -40 -20 -73q-20 -35 -71 -45q-10 -2 -20 -2q-23 0 -41 10q-26 14 -36.5 39t-6.5 53.5t32 51.5q10 8 26.5 13t32 4 t28 -9t16.5 -27q2 -12 -5 -15t-17.5 -2t-23 4t-20.5 1q-14 -4 -22 -15.5t-11.5 -25.5t1 -28.5t16.5 -22.5q29 -23 59.5 -11.5t48.5 37.5q19 28 19 54q0 11 -3 22q-11 37 -40 71t-64.5 64.5t-56.5 57.5l-20 24q-4 -39 -6.5 -76.5t-2.5 -70.5q0 -10 -8 -10t-8 10q0 18 4 66 t6 100q-14 23 -25.5 46t-15.5 52zM-20 493q0 -8 5 -19q5 -13 12 -28.5t15 -27.5q0 37 -4 62.5t-16 25.5t-12 -13z" />
<glyph unicode="t" horiz-adv-x="217" d="M-143 578q5 6 32 4q26 -2 55 -2t62 2q6 41 16.5 78.5t22.5 74.5q6 18 15.5 49t23.5 60.5t34 51.5q17 19 38 19h6q23 -2 33 -20t11 -43t-1 -49.5t-4 -38.5q-6 -43 -14.5 -85t-18.5 -85q58 4 106 5h19q35 0 57 -3q32 -7 32 -17q0 -8 -32 -1q-30 5 -70 5h-14q-49 -1 -102 -5 q-23 -90 -50.5 -176.5t-60.5 -170.5l-20 -47q2 -51 13 -98t50 -63q35 -14 58.5 5t38 52t19.5 68.5t5 54.5q0 16 7 14t9 -14q0 -4 -3 -34t-14 -63.5t-32.5 -64.5t-56.5 -37q-8 -1 -15 -1q-26 -1 -42 15q-22 20 -34.5 53t-20 69t-11.5 59q-14 92 -15 183v12q0 85 13 171 q-23 -1 -45 -1h-21q-30 1 -55 5q-25 3 -25 8zM33 223l20 49q29 72 52.5 144.5t41.5 148.5q0 4 1.5 5t1.5 5l-93 -6q-10 -76 -15 -149.5t-7 -149.5q0 -10 -1 -22t-1 -25zM59 586l97 8q14 57 24 114.5t10 116.5v18.5t-3 25t-9 20.5t-16 8q-23 -2 -37 -28.5t-21 -45.5 q-20 -57 -28 -117.5t-17 -119.5z" />
<glyph unicode="u" horiz-adv-x="354" d="M-1 206q1 38 1 64q0 72 16 148l4 14q5 14 9 28q4 16 9 24q2 3 4 3q3 0 5 -8q8 -31 9 -74v-22q0 -33 -2 -69l-6 -96t-3 -91q0 -12 1 -31.5t6 -37t15.5 -30t30.5 -10.5q18 0 29.5 12.5t20 30t12.5 36t8 32.5q10 43 12 88t6 90q4 68 19 125l6 21l10 24q0 2 1 2t1 2 q8 6 11.5 -10t7.5 -37q4 -45 4 -89t-4 -89q-2 -43 -6 -88q-1 -13 0 -25q0 -32 6 -63q4 -18 13 -34.5t20.5 -23t24.5 1t24 31.5q10 20 14 41t8 43l8 68q0 8 8.5 7t8.5 -9q-4 -23 -7.5 -45.5t-7.5 -44.5q-4 -12 -9 -32t-13 -38q-8 -17 -20 -31q-11 -12 -26 -12h-5 q-16 0 -27.5 11.5t-20 25.5t-13.5 29.5t-7 27.5q-18 57 -25 127q-8 -49 -18 -95t-26 -79t-36 -45q-9 -5 -18 -5q-13 0 -29 9q-27 16 -40 49t-19 72q-5 33 -5 66v11z" />
<glyph unicode="v" horiz-adv-x="323" d="M-10 363.5q0 37.5 10 72.5q2 6 5 16.5t8 18.5t11.5 11t12.5 -5q0 -23 1 -60.5t4 -81.5l6 -88t7 -77q2 -16 10.5 -52t22.5 -63.5t33.5 -36t42.5 30.5q35 61 46 138t17 147q5 38 7 74q1 17 1 32q0 20 -2 39q5 9 9 9q4 -1 5 -7t1 -13v-9q0 -14 -4 -59.5t-11.5 -103.5 t-19.5 -118.5t-29 -105.5q-18 -46 -42 -64q-10 -8 -21 -8q-15 0 -33 14q-25 23 -42 56.5t-27.5 72.5t-16.5 78t-8 70q-4 35 -4 72.5z" />
<glyph unicode="w" horiz-adv-x="432" d="M-14 343v15q0 31 6 62q0 6 4 19.5t9 25.5t11.5 17t14.5 -5q0 -20 1 -59t4 -83t6 -89t7 -78q2 -16 11.5 -52t23.5 -63.5t32.5 -34t41.5 34.5l18 41q-29 66 -41 136q-9 52 -9 103q0 17 1 34q0 29 7 63.5t34 52.5q9 7 15 7t10 -5q16 -4 24 -43t9 -96v-13q0 -51 -7 -107 q-8 -64 -22 -117q8 -37 22 -64t39 -27q25 -4 40 26t23.5 72t12.5 81t4 53q6 80 6 162q0 6 -1 16t-2 21.5t-1 21.5t4 14q3 3 6 3q2 0 3 -1q5 -2 5 -6q6 -9 6 -29q0 -3 1 -7q-1 -15 -3 -33q-2 -20 -5 -39t-3 -31q-4 -45 -7 -90t-9 -90q-4 -35 -11.5 -72t-29.5 -65 q-15 -21 -31 -23q-3 -1 -7 0q-11 0 -23 7q-14 9 -26.5 25.5t-19.5 31.5l-6 8q-16 -40 -36 -60q-13 -14 -29 -13q-8 0 -17 3q-31 10 -50 43t-31.5 73t-19.5 81t-9 67q-4 37 -6 75zM175 377q1 -35 4 -67t3 -42q0 -16 2 -52t6 -75q12 49 16.5 100.5t6.5 98.5v64.5t-16 62.5 l-7 6q-10 -5 -13 -33q-2 -21 -2 -46v-17z" />
<glyph unicode="x" horiz-adv-x="290" d="M-8 466q-3 10 -3 15t3 6q5 1 10 1q19 0 35 -13q20 -16 37.5 -46t31 -68.5t23.5 -79.5q2 4 3 10t5 12q10 29 20.5 57.5t20.5 57.5q0 4 7.5 18.5t16.5 27.5q9 14 16 22q3 4 5 3q2 0 2 -6q0 -41 -15.5 -77.5t-31.5 -71.5l-41 -92q10 -47 18.5 -87t14.5 -57q6 -18 15.5 -38.5 t20.5 -32t24.5 -7t29.5 32.5q14 29 21.5 66t9.5 69q0 8 1 17.5t4 14.5t6 3t3 -18q0 -18 -3 -50t-11 -63t-22.5 -55.5t-37.5 -32.5q-16 -6 -29.5 2t-23.5 23.5t-18 33t-13 27.5q-20 41 -36 90l-15 -28q-16 -35 -31.5 -68t-35.5 -61q-4 -6 -10.5 -13.5t-11.5 -10.5 q-3 -2 -5 -2t-3 1q-3 2 -3 12q12 4 22.5 17.5t19.5 30t16 32.5t12 27q18 39 34 86q-14 39 -27.5 76.5t-29.5 76.5q-2 4 -12.5 24.5t-21.5 43t-17 42.5z" />
<glyph unicode="y" horiz-adv-x="296" d="M0 187v61q0 37 3 74.5t11 74.5q0 2 5.5 19.5t11.5 35t11 27.5t9 0q8 -25 9 -61v-19q0 -28 -2 -59q-3 -41 -7 -83t-8 -77q-4 -31 -5 -64.5t9 -62.5q8 -20 18.5 -24t20.5 1t18.5 17t14.5 25q29 68 38 141.5t19 144.5q4 35 9 69t14 69v2q0 6 2 10l4 20q2 8 2 15.5t2 7.5 q2 9 9 9h1q8 -1 8 -11q0 -141 1 -283v-40q0 -121 -5 -242q4 12 8 16q14 29 27.5 57.5t24.5 59.5q4 16 7 49t13 43q8 8 11 2t3 -16q0 -12 -2 -31q-6 -29 -17 -56.5t-24 -56.5q-12 -29 -25 -55.5t-28 -52.5q-4 -59 -9 -115.5t-13 -116.5q-2 -16 -9.5 -49t-19.5 -64.5 t-32 -51.5q-12 -12 -27 -12q-10 0 -21 5q-29 12 -33 41t3.5 62.5t20.5 65.5t21 48q16 35 36 70t38 70q-2 76 -4 150q-1 38 -1 76t1 77q2 92 12 188v10q-4 -39 -7 -75.5t-7 -69.5q-2 -18 -6 -57t-13.5 -80t-25.5 -73t-43 -32q-33 -2 -50.5 28t-24.5 69.5t-7 79.5zM78 -418 q6 -25 22 -25v1q17 0 33 16q23 25 28 56.5t9 62.5q6 82 6 166q-10 -20 -20.5 -39t-20.5 -39q-23 -43 -45 -95q-15 -37 -15 -72q0 -16 3 -32z" />
<glyph unicode="z" horiz-adv-x="305" d="M-59 -66q2 2 11 -4t19.5 -14t20.5 -16.5t14 -10.5q31 -10 60.5 3.5t50.5 35.5q16 16 34.5 45t33 61t20.5 63.5t-4 56.5q-12 31 -38 31.5t-51.5 -13.5t-49 -36.5t-33.5 -39.5q-4 -6 -9 -18h-4q-2 0 -2 2q-6 -4 -9 -5t1 9q12 27 25.5 52.5t27.5 49.5q35 59 72 116.5 t80 111.5q0 2 2 2q-43 -23 -99 -28q-7 -1 -13 -1q-47 0 -81 31q-29 26 -29 58q0 6 1 13q0 2 2 8.5t5 12.5t7 8h2l6 -4q20 -29 44 -52.5t59 -33.5q19 -4 38 -4q13 0 27 2q34 4 60 27l6 6h2l10 14l4 -4q6 4 11 3q2 0 1 -2q0 -2 -4 -7q-6 -10 -22 -23q-131 -139 -209 -315 q23 23 52.5 44t39.5 26q33 10 57.5 0.5t38 -31t18.5 -50t-1 -57.5q-12 -57 -49 -106t-93 -72q-25 -10 -50 -12h-8l-42 8q-4 2 -16.5 9t-24.5 16q-13 10 -21 19q-5 5 -4 9q0 3 3 6z" />
<glyph unicode="&#x2000;" horiz-adv-x="762" />
<glyph unicode="&#x2001;" horiz-adv-x="1525" />
<glyph unicode="&#x2002;" horiz-adv-x="762" />
<glyph unicode="&#x2003;" horiz-adv-x="1525" />
<glyph unicode="&#x2004;" horiz-adv-x="508" />
<glyph unicode="&#x2005;" horiz-adv-x="381" />
<glyph unicode="&#x2006;" horiz-adv-x="254" />
<glyph unicode="&#x2007;" horiz-adv-x="254" />
<glyph unicode="&#x2008;" horiz-adv-x="190" />
<glyph unicode="&#x2009;" horiz-adv-x="305" />
<glyph unicode="&#x200a;" horiz-adv-x="84" />
<glyph unicode="&#x202f;" horiz-adv-x="305" />
<glyph unicode="&#x205f;" horiz-adv-x="381" />
<glyph unicode="&#xe000;" horiz-adv-x="491" d="M0 0v492h492v-492h-492z" />
</font>
</defs>
</svg>
